<svg xmlns="http://www.w3.org/2000/svg" width="512" height="512"><path d="M0 0 C0.85078125 0.42732422 0.85078125 0.42732422 1.71875 0.86328125 C3.80791488 0.16266641 3.80791488 0.16266641 5.71875 -1.13671875 C13.68186537 -5.28417467 20.72526947 -6.57252913 29.46875 -3.88671875 C36.30274335 -1.28837753 39.68823294 2.36474798 42.76953125 8.9453125 C44.99661708 15.79153931 44.97478858 24.30072313 41.93945312 30.94384766 C40.44994487 33.28595043 38.71103085 34.80125368 36.59375 36.58984375 C35.86929687 37.20682129 35.14484375 37.82379883 34.3984375 38.45947266 C33.84414063 38.92272949 33.28984375 39.38598633 32.71875 39.86328125 C33.39224991 39.86914749 34.06574982 39.87501373 34.75965881 39.88105774 C41.78430081 39.9451075 48.8084896 40.02955762 55.83276367 40.12573242 C58.45249447 40.15893868 61.07229606 40.18698391 63.69213867 40.2097168 C67.46303411 40.24334079 71.23328322 40.29566321 75.00390625 40.3515625 C76.17083511 40.35795242 77.33776398 40.36434235 78.54005432 40.3709259 C84.67575868 40.48127454 89.33161307 40.8227944 94.71875 43.86328125 C98.9679347 48.39574493 98.88059411 53.08386262 98.92407227 59.0065918 C98.93397186 59.83608337 98.94387146 60.66557495 98.95407104 61.52020264 C98.98567205 64.26343934 99.01043798 67.00669336 99.03515625 69.75 C99.05572698 71.6514379 99.07672349 73.55287124 99.09812927 75.45429993 C99.15333761 80.46017769 99.20275238 85.46609663 99.25097656 90.4720459 C99.3012006 95.57970853 99.35688196 100.68731132 99.41210938 105.79492188 C99.51967582 115.81765721 99.62112419 125.8404445 99.71875 135.86328125 C100.53913757 135.36753098 101.35952515 134.8717807 102.20477295 134.36100769 C103.82189178 133.39763237 103.82189178 133.39763237 105.47167969 132.41479492 C106.53956726 131.77466965 107.60745483 131.13454437 108.70770264 130.47502136 C114.92495799 127.14707642 121.38996696 127.72339169 128.13671875 129.5 C134.04574196 132.02590741 138.90907351 137.01191846 141.6328125 142.80859375 C143.63179015 149.39189347 143.04416311 156.17886161 140.0234375 162.296875 C137.79914267 165.99188115 135.07014555 168.89225845 131.96875 171.86328125 C131.43507813 172.385271 130.90140625 172.90726074 130.3515625 173.44506836 C126.94304984 176.75529812 123.45177941 179.9480321 119.8359375 183.03125 C117.12200324 185.37965437 114.48336387 187.80723253 111.84375 190.23828125 C105.7046934 195.88579007 99.50708323 201.46600178 93.296875 207.03515625 C88.7042685 211.15972641 84.13698413 215.30953096 79.59375 219.48828125 C75.72236736 223.04829915 71.80927085 226.55033993 67.8359375 229.99609375 C64.60986482 232.84122796 61.4513956 235.75961004 58.28564453 238.67138672 C54.26045406 242.37223071 50.20779782 246.04102693 46.13671875 249.69140625 C44.53049648 251.13415194 42.92888368 252.58204668 41.33203125 254.03515625 C38.80827194 256.32726616 36.26481329 258.59598402 33.71875 260.86328125 C33.24099121 261.29930664 32.76323242 261.73533203 32.27099609 262.18457031 C14.01905278 278.80086552 -7.37008256 288.20702508 -32.28125 288.23828125 C-33.27769531 288.26277344 -34.27414063 288.28726562 -35.30078125 288.3125 C-54.37892424 288.38449299 -71.79665272 281.04027216 -89.34375 274.36328125 C-91.74021814 273.46179244 -94.13719537 272.56165588 -96.53466797 271.6628418 C-101.26678078 269.88811904 -105.99709232 268.10873108 -110.72607422 266.32568359 C-118.73666353 263.31038907 -126.76892616 260.35628166 -134.81442261 257.43554688 C-136.85643808 256.69387327 -138.89715027 255.94869934 -140.93774414 255.203125 C-142.1364917 254.76742188 -143.33523926 254.33171875 -144.5703125 253.8828125 C-145.58818848 253.51260986 -146.60606445 253.14240723 -147.65478516 252.76098633 C-151.53616902 251.43435977 -154.94593185 250.73089168 -159.046875 250.546875 C-159.93632812 250.50498047 -160.82578125 250.46308594 -161.7421875 250.41992188 C-162.66257812 250.38060547 -163.58296875 250.34128906 -164.53125 250.30078125 C-165.46710938 250.25759766 -166.40296875 250.21441406 -167.3671875 250.16992188 C-169.67173641 250.06410075 -171.97638839 249.96201568 -174.28125 249.86328125 C-174.26553955 250.44819336 -174.2498291 251.03310547 -174.23364258 251.63574219 C-174.17114733 254.29482289 -174.13221431 256.95374889 -174.09375 259.61328125 C-174.06861328 260.53367187 -174.04347656 261.4540625 -174.01757812 262.40234375 C-174.00791016 263.29179687 -173.99824219 264.18125 -173.98828125 265.09765625 C-173.9725708 265.91459961 -173.95686035 266.73154297 -173.94067383 267.57324219 C-174.36696396 270.43962314 -175.30279841 271.77168433 -177.28125 273.86328125 C-181.19149627 275.16669667 -184.9006482 274.99422463 -188.9753418 274.97680664 C-189.8777123 274.97692718 -190.7800828 274.97704771 -191.70979786 274.9771719 C-194.63337982 274.97642497 -197.55689818 274.96880671 -200.48046875 274.9609375 C-202.28438283 274.9594674 -204.08829733 274.95844711 -205.89221191 274.95788574 C-212.58439778 274.95264075 -219.27657451 274.93867957 -225.96875 274.92578125 C-240.921875 274.90515625 -255.875 274.88453125 -271.28125 274.86328125 C-271.28125 227.34328125 -271.28125 179.82328125 -271.28125 130.86328125 C-248.635 130.77046875 -248.635 130.77046875 -225.53125 130.67578125 C-218.38130371 130.63481323 -218.38130371 130.63481323 -211.08691406 130.59301758 C-205.26513672 130.57946777 -205.26513672 130.57946777 -202.53948975 130.57695007 C-200.6363108 130.57234407 -198.73314059 130.56179435 -196.83001709 130.54655457 C-193.94674474 130.52462065 -191.06400724 130.52156235 -188.18066406 130.52270508 C-187.33316715 130.51191075 -186.48567024 130.50111643 -185.61249161 130.489995 C-182.21452536 130.50804414 -179.73950446 130.61296792 -176.72503662 132.25956726 C-175.28125 133.86328125 -175.28125 133.86328125 -175.28125 135.86328125 C-174.69859375 135.52594971 -174.1159375 135.18861816 -173.515625 134.84106445 C-153.49223253 123.33981357 -134.67350343 114.53323682 -111.046875 119.66796875 C-107.7089305 120.59199201 -104.51705545 121.6323578 -101.28125 122.86328125 C-99.88420169 123.38827931 -98.48689254 123.91258368 -97.08935547 124.4362793 C-96.01716263 124.83812691 -96.01716263 124.83812691 -94.92330933 125.24809265 C-94.38142975 125.45110489 -93.83955017 125.65411713 -93.28125 125.86328125 C-93.29124275 124.47385818 -93.29124275 124.47385818 -93.30143738 123.05636597 C-93.36160791 114.316873 -93.40725466 105.57744985 -93.43668652 96.83779716 C-93.45232653 92.34489971 -93.47353433 87.85217376 -93.50756836 83.359375 C-93.54022129 79.02163131 -93.55811553 74.68405235 -93.56588173 70.34619522 C-93.5714146 68.69322238 -93.58221901 67.04025831 -93.59844017 65.3873558 C-93.62029371 63.06777379 -93.62321368 60.74886801 -93.62182617 58.42919922 C-93.63181892 56.45063431 -93.63181892 56.45063431 -93.64201355 54.43209839 C-93.16639698 49.72710927 -91.82090065 46.3035996 -88.34375 43.05078125 C-84.58842871 40.88862657 -81.05885139 40.72668311 -76.77832031 40.65795898 C-75.67748108 40.63801376 -74.57664185 40.61806854 -73.44244385 40.59751892 C-71.66882477 40.57245018 -71.66882477 40.57245018 -69.859375 40.546875 C-68.03669098 40.51570335 -68.03669098 40.51570335 -66.17718506 40.48390198 C-62.29526427 40.41851297 -58.4132758 40.35957074 -54.53125 40.30078125 C-51.89973258 40.25758593 -49.26822201 40.21397131 -46.63671875 40.16992188 C-40.1849674 40.06284242 -33.73314871 39.96105611 -27.28125 39.86328125 C-28.11269531 39.15751953 -28.11269531 39.15751953 -28.9609375 38.4375 C-30.04761719 37.50357422 -30.04761719 37.50357422 -31.15625 36.55078125 C-32.23519531 35.62845703 -32.23519531 35.62845703 -33.3359375 34.6875 C-38.43649253 29.9044494 -38.49984544 25.1189541 -38.71875 18.42578125 C-38.53889401 11.13082213 -37.77219051 6.30015852 -32.515625 1.125 C-23.13448494 -6.61259387 -9.74633477 -7.92958378 0 0 Z M-23.28125 8.30078125 C-26.10656551 11.92071675 -27.1113074 15.28255564 -27.28125 19.86328125 C-26.57720931 23.32370767 -25.14050439 25.94204085 -22.7109375 28.546875 C-19.04669964 30.53216143 -15.6242776 30.18314284 -11.53125 30.05078125 C-10.73847656 30.03724609 -9.94570313 30.02371094 -9.12890625 30.00976562 C-7.17939436 29.97453348 -5.23023374 29.92072946 -3.28125 29.86328125 C-3.14531557 27.319797 -3.04676093 24.78366629 -2.96875 22.23828125 C-2.92685547 21.52542969 -2.88496094 20.81257813 -2.84179688 20.078125 C-2.74894468 16.02976929 -3.07412454 13.59923812 -5.67578125 10.40234375 C-9.01636382 7.14690347 -10.55446598 6.68008619 -15.09375 6.55078125 C-18.47573565 6.60934377 -20.18040015 6.81495736 -23.28125 8.30078125 Z M10.09375 11.42578125 C8.02845011 15.08699469 8.39789493 18.48953228 8.53125 22.61328125 C8.54478516 23.40605469 8.55832031 24.19882813 8.57226562 25.015625 C8.60749777 26.96513689 8.66130179 28.91429751 8.71875 30.86328125 C10.94764496 30.91757098 13.17692471 30.95620463 15.40625 30.98828125 C16.64761719 31.01148438 17.88898438 31.0346875 19.16796875 31.05859375 C23.7652712 30.80571683 26.51646081 29.87060462 30.03125 26.92578125 C32.56334204 22.3305031 32.63519002 17.99226488 31.71875 12.86328125 C29.5171526 9.96644257 27.93280538 8.47030894 24.71875 6.86328125 C18.36471189 6.44662301 14.83824088 6.86377079 10.09375 11.42578125 Z " fill="#FEC6AD" transform="translate(276.28125,219.13671875)"></path><path d="M0 0 C3.23196189 1.21092846 6.46874307 2.40809061 9.70703125 3.60198975 C18.61404956 6.8906853 27.51348825 10.19444202 36.36109924 13.64025879 C39.30843057 14.78588946 42.26291933 15.91226362 45.21853638 17.03631592 C47.15258392 17.78188532 49.07256663 18.55728606 50.99389648 19.3348999 C60.67505697 23.01190766 68.48404505 23.0996942 78.734375 22.68841553 C78.734375 16.41841553 78.734375 10.14841553 78.734375 3.68841553 C110.15522904 2.58592942 141.23466841 2.73387896 172.734375 3.68841553 C172.734375 50.54841553 172.734375 97.40841553 172.734375 145.68841553 C141.714375 145.68841553 110.694375 145.68841553 78.734375 145.68841553 C78.404375 137.76841553 78.074375 129.84841553 77.734375 121.68841553 C74.5375 123.44154053 71.340625 125.19466553 68.046875 127.00091553 C54.65388463 134.11404261 41.22639721 138.43371234 25.921875 134.68841553 C24.87 134.35841553 23.818125 134.02841553 22.734375 133.68841553 C23.1365625 135.01872803 23.1365625 135.01872803 23.546875 136.37591553 C23.734375 139.68841553 23.734375 139.68841553 21.79882812 142.24607849 C17.92184931 145.33598999 14.67553539 146.10553991 9.890625 147.07830811 C8.9996408 147.27505725 8.1086566 147.47180639 7.19067287 147.67451763 C4.20878536 148.32834776 1.22190506 148.95544697 -1.765625 149.58294678 C-3.90595571 150.0468975 -6.0459166 150.51255714 -8.18553162 150.97979736 C-12.79199514 151.98207211 -17.40075934 152.97266753 -22.01168823 153.95419312 C-29.30864068 155.50752799 -36.60013631 157.08542891 -43.89086914 158.66766357 C-51.50264497 160.3182343 -59.11484321 161.96674859 -66.72901917 163.60621643 C-84.91742139 167.52262249 -103.0934468 171.49194178 -121.26171875 175.50091553 C-122.50981953 175.77628332 -123.7579203 176.05165112 -125.04384232 176.33536339 C-131.20134547 177.69413059 -137.35866103 179.05374536 -143.51586914 180.41384888 C-153.92365558 182.71258687 -164.33274936 185.00538444 -174.74214363 187.29682922 C-178.7192194 188.17249545 -182.69609524 189.04906783 -186.67294407 189.92576408 C-189.29834831 190.50318466 -191.92462781 191.07648343 -194.55099487 191.64950562 C-197.54636098 192.30449619 -200.53537661 192.98023875 -203.52053833 193.6802063 C-204.76423187 193.96546173 -206.00792542 194.25071716 -207.28930664 194.5446167 C-208.3377626 194.79225266 -209.38621857 195.03988861 -210.46644592 195.29502869 C-213.50987839 195.72274205 -215.38807979 195.78769628 -218.265625 194.68841553 C-222.15025824 190.29768583 -222.79043462 183.95293334 -223.99291992 178.38397217 C-224.24695084 177.24195847 -224.50098175 176.09994476 -224.76271057 174.92332458 C-225.59946394 171.15032355 -226.42307221 167.37459002 -227.24609375 163.59857178 C-227.82324901 160.97417493 -228.40274152 158.35029525 -228.98200989 155.72636414 C-230.19443222 150.22753677 -231.39960187 144.72715845 -232.6003418 139.22576904 C-233.98684536 132.87364205 -235.38419695 126.52397767 -236.78753203 120.17554957 C-238.13951021 114.05848214 -239.4843216 107.93986123 -240.82570839 101.82046318 C-241.39564961 99.2208337 -241.96830945 96.6218483 -242.54222679 94.02308846 C-243.34320492 90.3908034 -244.13597924 86.75682368 -244.92651367 83.12225342 C-245.16491974 82.04829315 -245.40332581 80.97433289 -245.6489563 79.86782837 C-248.33380259 67.42359577 -248.33380259 67.42359577 -246.18385315 63.93115234 C-243.4284168 62.14602465 -240.76968305 61.56222701 -237.57397461 60.80462646 C-236.87702201 60.63853756 -236.18006941 60.47244865 -235.46199703 60.30132675 C-226.23828882 58.14739288 -216.93605955 56.34539277 -207.64798164 54.49503326 C-200.678748 53.0952961 -193.72073149 51.64057108 -186.76142979 50.19240189 C-180.68991595 48.93204977 -174.61548976 47.69372738 -168.5300293 46.50238037 C-162.5865736 45.33765897 -156.65794751 44.11389629 -150.73463249 42.85088348 C-148.50059456 42.38515184 -146.26216176 41.93993512 -144.01956367 41.51734161 C-128.17160376 38.51366597 -118.70993511 33.53681684 -107.89578056 21.47357941 C-105.73208933 19.10414699 -103.42053004 16.998448 -101.015625 14.87591553 C-99.8709375 13.864646 -99.8709375 13.864646 -98.703125 12.83294678 C-97.89875 12.12525146 -97.094375 11.41755615 -96.265625 10.68841553 C-95.26561277 9.77566851 -94.26561357 8.86290722 -93.265625 7.95013428 C-64.13037375 -18.20905462 -33.80830256 -12.68408619 0 0 Z " fill="#009F72" transform="translate(334.265625,16.31158447265625)"></path><path d="M0 0 C3.23196189 1.21092846 6.46874307 2.40809061 9.70703125 3.60198975 C18.61404956 6.8906853 27.51348825 10.19444202 36.36109924 13.64025879 C39.30843057 14.78588946 42.26291933 15.91226362 45.21853638 17.03631592 C47.15258392 17.78188532 49.07256663 18.55728606 50.99389648 19.3348999 C60.67505697 23.01190766 68.48404505 23.0996942 78.734375 22.68841553 C78.734375 16.41841553 78.734375 10.14841553 78.734375 3.68841553 C110.15522904 2.58592942 141.23466841 2.73387896 172.734375 3.68841553 C172.734375 50.54841553 172.734375 97.40841553 172.734375 145.68841553 C141.714375 145.68841553 110.694375 145.68841553 78.734375 145.68841553 C78.404375 137.76841553 78.074375 129.84841553 77.734375 121.68841553 C74.5375 123.44154053 71.340625 125.19466553 68.046875 127.00091553 C53.09123737 134.9439774 38.52746483 138.60570497 21.734375 133.68841553 C16.07918337 131.6931315 10.50362969 129.50420996 4.921875 127.31341553 C3.24236688 126.65934387 1.56259058 126.00596049 -0.11743164 125.35321045 C-2.83503557 124.29728349 -5.55244165 123.24087471 -8.26896667 122.18217468 C-15.87355775 119.22041366 -23.49332119 116.29937283 -31.1171875 113.38763428 C-33.47683896 112.48521227 -35.83645817 111.58270594 -38.19604492 110.68011475 C-41.68385213 109.34596034 -45.17200881 108.01277222 -48.66152954 106.68310547 C-51.93597829 105.43477186 -55.20840801 104.18127398 -58.48046875 102.92669678 C-59.45291534 102.55743576 -60.42536194 102.18817474 -61.42727661 101.807724 C-71.29734766 98.01237343 -79.07537896 94.73564751 -84.640625 85.37591553 C-86.05308293 79.30234644 -86.34082218 73.80254442 -83.078125 68.31341553 C-79.73144117 63.63748545 -75.8869971 60.22151701 -70.265625 58.68841553 C-61.75193868 57.96954374 -54.38893858 60.44512887 -46.37890625 62.99310303 C-44.94916624 63.4378085 -43.51908026 63.88140303 -42.08866882 64.32394409 C-38.34414217 65.48574812 -34.60457452 66.66277485 -30.86584473 67.84307861 C-27.0665365 69.03937112 -23.26252601 70.2205114 -19.45898438 71.40325928 C-13.89382764 73.13632985 -8.33038399 74.87470811 -2.77075195 76.62542725 C-1.65650345 76.97628387 -0.54225494 77.3271405 0.60575867 77.68862915 C3.65730776 78.66378778 6.69754826 79.66842711 9.734375 80.68841553 C9.55898193 79.88661865 9.38358887 79.08482178 9.20288086 78.25872803 C8.66861752 75.81638131 8.13453776 73.37399443 7.60058594 70.93157959 C6.9766687 68.07898279 6.35080631 65.22682153 5.72363281 62.37493896 C4.22000933 55.53017475 2.72615004 48.68409156 1.28785706 41.82525635 C0.67353936 38.89835473 0.05189047 35.97303115 -0.57028198 33.04779053 C-0.86605236 31.64686898 -1.15817635 30.24517239 -1.44656372 28.8427124 C-1.85094576 26.87789248 -2.26893753 24.91588854 -2.6875 22.95404053 C-3.03699707 21.28003174 -3.03699707 21.28003174 -3.39355469 19.57220459 C-4.28465435 16.6254887 -5.07401478 14.84657105 -7.265625 12.68841553 C-15.73431318 12.76033645 -24.15474847 15.31836076 -32.390625 17.18841553 C-33.97649248 17.54468438 -35.56243157 17.90063461 -37.1484375 18.25628662 C-48.04094473 20.70520757 -58.91827619 23.21945865 -69.79421997 25.74072266 C-82.33620546 28.64704744 -94.87925672 31.54776105 -107.453125 34.31341553 C-108.60490234 34.57332275 -109.75667969 34.83322998 -110.94335938 35.10101318 C-111.99201172 35.32837158 -113.04066406 35.55572998 -114.12109375 35.78997803 C-115.02496826 35.98929932 -115.92884277 36.18862061 -116.86010742 36.39398193 C-119.32192278 36.69530634 -120.92925795 36.46256013 -123.265625 35.68841553 C-104.40764524 17.85182756 -104.40764524 17.85182756 -96.265625 10.68841553 C-95.26561277 9.77566851 -94.26561357 8.86290722 -93.265625 7.95013428 C-64.13037375 -18.20905462 -33.80830256 -12.68408619 0 0 Z " fill="#FEC6AE" transform="translate(334.265625,16.31158447265625)"></path><path d="M0 0 C0.5671875 0.28488281 1.134375 0.56976563 1.71875 0.86328125 C3.80791488 0.16266641 3.80791488 0.16266641 5.71875 -1.13671875 C13.68186537 -5.28417467 20.72526947 -6.57252913 29.46875 -3.88671875 C36.30274335 -1.28837753 39.68823294 2.36474798 42.76953125 8.9453125 C44.99661708 15.79153931 44.97478858 24.30072313 41.93945312 30.94384766 C40.44994487 33.28595043 38.71103085 34.80125368 36.59375 36.58984375 C35.86929688 37.20682129 35.14484375 37.82379883 34.3984375 38.45947266 C33.84414063 38.92272949 33.28984375 39.38598633 32.71875 39.86328125 C33.39224991 39.86914749 34.06574982 39.87501373 34.75965881 39.88105774 C41.78430081 39.9451075 48.8084896 40.02955762 55.83276367 40.12573242 C58.45249447 40.15893868 61.07229606 40.18698391 63.69213867 40.2097168 C67.46303411 40.24334079 71.23328322 40.29566321 75.00390625 40.3515625 C76.17083511 40.35795242 77.33776398 40.36434235 78.54005432 40.3709259 C84.67575868 40.48127454 89.33161307 40.8227944 94.71875 43.86328125 C98.96526185 48.39289389 98.90424426 53.14020482 99.00683594 59.06323242 C99.02465118 59.8993808 99.04246643 60.73552917 99.06082153 61.59701538 C99.21518393 69.30564758 99.30269508 77.01552136 99.37081528 84.72535229 C99.41701936 89.90274392 99.48449971 95.0778769 99.60351562 100.25415039 C99.71826212 105.2634459 99.77870924 110.27071364 99.8013382 115.28124428 C99.81909254 117.18680319 99.85587517 119.09228657 99.91234589 120.99709129 C100.33085228 135.81149407 100.33085228 135.81149407 96.55206299 140.62091064 C93.71121719 142.72643152 90.8831078 144.29328273 87.71875 145.86328125 C86.02023471 146.97758712 84.33620845 148.11435704 82.66894531 149.27490234 C80.9633451 150.39817955 79.25593265 151.51870904 77.546875 152.63671875 C76.62138855 153.24536774 75.6959021 153.85401672 74.74237061 154.48110962 C71.81947191 156.40267963 68.89421784 158.32062544 65.96875 160.23828125 C63.06658861 162.14397573 60.16493077 164.05043476 57.26338196 165.95706177 C55.38108616 167.19392017 53.49859155 168.43047607 51.6158905 169.66671753 C45.55237797 173.65026906 39.50336407 177.65464412 33.47406006 181.68978882 C18.27083281 191.86328125 18.27083281 191.86328125 15.71875 191.86328125 C15.76515625 191.08984375 15.8115625 190.31640625 15.859375 189.51953125 C16.12587711 181.82904181 15.69133364 176.14896128 10.31860352 170.3527832 C5.43492955 165.95022994 0.33185044 163.71856954 -5.78125 161.42578125 C-7.37815674 160.80678955 -7.37815674 160.80678955 -9.00732422 160.17529297 C-12.070677 158.99107126 -15.13882931 157.82026742 -18.2088623 156.65350342 C-21.97970089 155.21564493 -25.74321837 153.75879791 -29.5078125 152.3046875 C-36.14580249 149.74311187 -42.78642483 147.18849484 -49.4296875 144.640625 C-50.25267334 144.32496582 -51.07565918 144.00930664 -51.92358398 143.68408203 C-55.95293268 142.13888299 -59.98263294 140.59460619 -64.01269531 139.05126953 C-67.67473113 137.64856061 -71.33537444 136.24227381 -74.99505615 134.83343506 C-76.34173219 134.31581188 -77.68893371 133.79955356 -79.03668213 133.284729 C-80.8851109 132.57858049 -82.73166947 131.86754223 -84.578125 131.15625 C-85.61291992 130.75946045 -86.64771484 130.3626709 -87.71386719 129.95385742 C-90.28125 128.86328125 -90.28125 128.86328125 -93.28125 126.86328125 C-93.5840023 124.41123741 -93.69091372 122.20981496 -93.66943359 119.75488281 C-93.67469055 119.02295715 -93.67994751 118.29103149 -93.68536377 117.53692627 C-93.69860299 115.10903787 -93.68980863 112.68180174 -93.6796875 110.25390625 C-93.68170799 108.56719843 -93.68461922 106.88049145 -93.68838501 105.19378662 C-93.69281438 101.65286978 -93.68636099 98.1121796 -93.67236328 94.57128906 C-93.65532321 90.04065893 -93.66507554 85.51056397 -93.68308067 80.97995377 C-93.6939468 77.49342862 -93.69045833 74.00702922 -93.6826973 70.52050018 C-93.68070038 68.85080654 -93.68313668 67.18110137 -93.69013596 65.5114212 C-93.69779126 63.17039518 -93.68608776 60.83022077 -93.66943359 58.48925781 C-93.67550629 57.80331543 -93.68157898 57.11737305 -93.68783569 56.41064453 C-93.62800438 51.84993121 -92.63739426 48.75369982 -90.28125 44.86328125 C-86.19172608 41.03759759 -82.21316853 40.74521572 -76.77832031 40.65795898 C-75.67748108 40.63801376 -74.57664185 40.61806854 -73.44244385 40.59751892 C-71.66882477 40.57245018 -71.66882477 40.57245018 -69.859375 40.546875 C-68.64425232 40.5260939 -67.42912964 40.50531281 -66.17718506 40.48390198 C-62.29526427 40.41851297 -58.4132758 40.35957074 -54.53125 40.30078125 C-51.89973258 40.25758593 -49.26822201 40.21397131 -46.63671875 40.16992188 C-40.1849674 40.06284242 -33.73314871 39.96105611 -27.28125 39.86328125 C-27.83554688 39.39277344 -28.38984375 38.92226563 -28.9609375 38.4375 C-30.04761719 37.50357422 -30.04761719 37.50357422 -31.15625 36.55078125 C-31.87554687 35.93589844 -32.59484375 35.32101563 -33.3359375 34.6875 C-38.43649253 29.9044494 -38.49984544 25.1189541 -38.71875 18.42578125 C-38.53889401 11.13082213 -37.77219051 6.30015852 -32.515625 1.125 C-23.13448494 -6.61259387 -9.74633477 -7.92958378 0 0 Z M-23.28125 8.30078125 C-26.10656551 11.92071675 -27.1113074 15.28255564 -27.28125 19.86328125 C-26.57720931 23.32370767 -25.14050439 25.94204085 -22.7109375 28.546875 C-19.04669964 30.53216143 -15.6242776 30.18314284 -11.53125 30.05078125 C-10.73847656 30.03724609 -9.94570313 30.02371094 -9.12890625 30.00976562 C-7.17939436 29.97453348 -5.23023374 29.92072946 -3.28125 29.86328125 C-3.14531557 27.319797 -3.04676093 24.78366629 -2.96875 22.23828125 C-2.92685547 21.52542969 -2.88496094 20.81257813 -2.84179688 20.078125 C-2.74894468 16.02976929 -3.07412454 13.59923812 -5.67578125 10.40234375 C-9.01636382 7.14690347 -10.55446598 6.68008619 -15.09375 6.55078125 C-18.47573565 6.60934377 -20.18040015 6.81495736 -23.28125 8.30078125 Z M10.09375 11.42578125 C8.02845011 15.08699469 8.39789493 18.48953228 8.53125 22.61328125 C8.54478516 23.40605469 8.55832031 24.19882813 8.57226562 25.015625 C8.60749777 26.96513689 8.66130179 28.91429751 8.71875 30.86328125 C10.94764496 30.91757098 13.17692471 30.95620463 15.40625 30.98828125 C16.64761719 31.01148438 17.88898438 31.0346875 19.16796875 31.05859375 C23.7652712 30.80571683 26.51646081 29.87060462 30.03125 26.92578125 C32.56334204 22.3305031 32.63519002 17.99226488 31.71875 12.86328125 C29.5171526 9.96644257 27.93280538 8.47030894 24.71875 6.86328125 C18.36471189 6.44662301 14.83824088 6.86377079 10.09375 11.42578125 Z " fill="#4DAAFE" transform="translate(276.28125,219.13671875)"></path><path d="M0 0 C15.076875 -0.103125 30.15375 -0.20625 45.6875 -0.3125 C50.44502686 -0.35802002 55.20255371 -0.40354004 60.10424805 -0.45043945 C65.92150879 -0.47302246 65.92150879 -0.47302246 68.64631653 -0.47721863 C70.54615637 -0.48488802 72.44597212 -0.50245619 74.34565735 -0.52787781 C77.22655396 -0.56449706 80.10596595 -0.56952977 82.98706055 -0.56762695 C84.25290875 -0.59461277 84.25290875 -0.59461277 85.54432964 -0.62214375 C89.43579322 -0.58775385 91.59577027 -0.23188097 95.02485657 1.73516846 C98.14474171 6.89221135 97.67908557 11.88960593 97.61523438 17.80493164 C97.62078339 19.10621506 97.6263324 20.40749847 97.63204956 21.74821472 C97.64627976 25.31033961 97.62925528 28.87169093 97.60576439 32.43374181 C97.58563772 36.16346125 97.59153581 39.89314914 97.59387207 43.62290955 C97.59381852 49.88488505 97.57407586 56.14655855 97.54199219 62.40844727 C97.50508424 69.64707495 97.49631906 76.88530732 97.5032897 84.12401682 C97.50959524 91.0903304 97.49884056 98.05650849 97.47932434 105.02279472 C97.47115178 107.9864336 97.46844051 110.95000322 97.47001648 113.91365242 C97.47105876 118.05079227 97.44688463 122.18741088 97.41992188 126.32446289 C97.42285248 127.55522552 97.42578308 128.78598816 97.42880249 130.05404663 C97.4174527 131.17981613 97.40610291 132.30558563 97.39440918 133.46546936 C97.38881611 134.93244058 97.38881611 134.93244058 97.38311005 136.42904758 C96.93203699 139.45608221 96.11690478 140.81467799 94 143 C90.08975373 144.30341542 86.3806018 144.13094338 82.3059082 144.11352539 C81.4035377 144.11364593 80.5011672 144.11376646 79.57145214 144.11389065 C76.64787018 144.11314372 73.72435182 144.10552546 70.80078125 144.09765625 C68.99686717 144.09618615 67.19295267 144.09516586 65.38903809 144.09460449 C58.69685222 144.0893595 52.00467549 144.07539832 45.3125 144.0625 C30.359375 144.041875 15.40625 144.02125 0 144 C0 96.48 0 48.96 0 0 Z " fill="#C5CBFD" transform="translate(5,350)"></path><path d="M0 0 C0 46.86 0 93.72 0 142 C-31.02 142 -62.04 142 -94 142 C-94 95.14 -94 48.28 -94 0 C-62.40252464 -0.95749925 -31.59747536 -0.95749925 0 0 Z " fill="#E8EFFE" transform="translate(507,20)"></path><path d="M0 0 C2 1 2 1 3.1875 4.4375 C4.79960186 11.6339227 4.0406316 17.88863407 0.21728516 24.23999023 C-1.79616813 27.1511384 -4.2008847 29.55804135 -6.75 32 C-7.28367187 32.52198975 -7.81734375 33.04397949 -8.3671875 33.58178711 C-11.77570016 36.89201687 -15.26697059 40.08475085 -18.8828125 43.16796875 C-21.59674676 45.51637312 -24.23538613 47.94395128 -26.875 50.375 C-33.0140566 56.02250882 -39.21166677 61.60272053 -45.421875 67.171875 C-50.0144815 71.29644516 -54.58176587 75.44624971 -59.125 79.625 C-62.99638264 83.1850179 -66.90947915 86.68705868 -70.8828125 90.1328125 C-74.10888518 92.97794671 -77.2673544 95.89632879 -80.43310547 98.80810547 C-84.45829594 102.50894946 -88.51095218 106.17774568 -92.58203125 109.828125 C-94.18825352 111.27087069 -95.78986632 112.71876543 -97.38671875 114.171875 C-99.91047806 116.46398491 -102.45393671 118.73270277 -105 121 C-105.47775879 121.43602539 -105.95551758 121.87205078 -106.44775391 122.32128906 C-124.69969722 138.93758427 -146.08883256 148.34374383 -171 148.375 C-171.99644531 148.39949219 -172.99289063 148.42398438 -174.01953125 148.44921875 C-193.09767424 148.52121174 -210.51540272 141.17699091 -228.0625 134.5 C-230.45896814 133.59851119 -232.85594537 132.69837463 -235.25341797 131.79956055 C-239.98553078 130.02483779 -244.71584232 128.24544983 -249.44482422 126.46240234 C-257.45541353 123.44710782 -265.48767616 120.49300041 -273.53317261 117.57226562 C-275.57518808 116.83059202 -277.61590027 116.08541809 -279.65649414 115.33984375 C-281.45461548 114.68628906 -281.45461548 114.68628906 -283.2890625 114.01953125 C-284.30693848 113.64932861 -285.32481445 113.27912598 -286.37353516 112.89770508 C-290.25491902 111.57107852 -293.66468185 110.86761043 -297.765625 110.68359375 C-298.56774414 110.64548584 -299.36986328 110.60737793 -300.19628906 110.56811523 C-301.20401367 110.52501221 -302.21173828 110.48190918 -303.25 110.4375 C-306.4675 110.293125 -309.685 110.14875 -313 110 C-313 102.41 -313 94.82 -313 87 C-296.16840671 86.25666927 -284.24053714 87.9429329 -268.75 94.1875 C-266.85250539 94.9194113 -264.95354828 95.64754116 -263.05322266 96.37207031 C-259.21532679 97.8404562 -255.38564801 99.32767006 -251.56152344 100.83154297 C-246.3065614 102.89158034 -241.02476199 104.87062723 -235.7265625 106.81640625 C-234.92500732 107.11093185 -234.12345215 107.40545746 -233.29760742 107.70890808 C-231.73810562 108.28146614 -230.17849755 108.85373484 -228.61877441 109.4256897 C-212.87756028 115.20864404 -212.87756028 115.20864404 -205.56640625 118.21875 C-182.93020153 127.34262208 -157.42151885 126.02093699 -135.04443359 116.8828125 C-123.40276124 111.8557899 -114.24246708 104.5006308 -105 96 C-104.3905957 95.44022461 -103.78119141 94.88044922 -103.15332031 94.30371094 C-100.12589659 91.51416755 -97.11301766 88.70964831 -94.109375 85.89453125 C-91.15016391 83.12712087 -88.12241984 80.45110038 -85.0546875 77.8046875 C-82.33075297 75.41218226 -79.66656731 72.95594058 -77 70.5 C-73.09023232 66.8998211 -69.14133397 63.35582277 -65.125 59.875 C-62.38176582 57.45449925 -59.69115432 54.97799358 -57 52.5 C-53.69971077 49.46111982 -50.39050717 46.43843955 -47 43.5 C-43.12182987 40.13677362 -39.34472189 36.66664329 -35.56689453 33.19189453 C-30.74414632 28.75775933 -25.87619087 24.37526596 -21 20 C-18.487754 17.73626056 -15.97587588 15.47211711 -13.46484375 13.20703125 C-11.79906509 11.71548617 -10.12429816 10.23392801 -8.44140625 8.76171875 C-7.63574219 8.05660156 -6.83007812 7.35148437 -6 6.625 C-4.9171875 5.68527344 -4.9171875 5.68527344 -3.8125 4.7265625 C-1.79631581 2.93265792 -1.79631581 2.93265792 0 0 Z " fill="#FFA990" transform="translate(415,359)"></path><path d="M0 0 C4 2 4 2 6.51977539 4.32666016 C10.93935982 8.09342676 16.30654682 9.76554787 21.68359375 11.7734375 C22.83613647 12.21447815 23.9886792 12.6555188 25.17614746 13.10992432 C27.64651664 14.05346523 30.11803599 14.99264909 32.59274292 15.92462158 C36.45624765 17.37991575 40.31262361 18.85347689 44.16821289 20.32958984 C54.92587203 24.44350129 65.69812315 28.51809913 76.48423767 32.55685425 C80.13420475 33.92525715 83.7806977 35.30276455 87.42678833 36.68145752 C89.89622996 37.60949044 92.37144243 38.52070778 94.84741211 39.43115234 C96.32434014 39.98720157 97.80100236 40.54395758 99.27734375 41.1015625 C99.93915649 41.33917297 100.60096924 41.57678345 101.28283691 41.82159424 C104.00124586 42.86497683 105.72391712 43.60926414 107.42797852 46.02099609 C108.21692861 48.75050076 107.95755862 50.33251527 107 53 C103.43813205 56.58102843 99.03295206 57.15759286 94.26977539 58.1628418 C93.37893722 58.35929889 92.48809904 58.55575598 91.57026577 58.75816631 C88.58140562 59.41477551 85.58961551 60.05689137 82.59765625 60.69921875 C80.45606049 61.16678972 78.31466694 61.63528772 76.17346191 62.10464478 C71.56002133 63.11392757 66.94526492 64.11687242 62.32937622 65.11489868 C55.02533326 66.69416057 47.72422724 68.28669782 40.42358398 69.8815918 C32.80370171 71.54550734 25.18358439 73.20831489 17.56239319 74.8662262 C-0.63102257 78.82411793 -18.81774882 82.81137775 -37 86.8203125 C-38.8719765 87.23301486 -38.8719765 87.23301486 -40.78177071 87.65405464 C-46.93834955 89.01146552 -53.09483021 90.36932097 -59.25125122 91.72744751 C-69.65915315 94.02332913 -80.06764166 96.31654516 -90.47645569 98.60828781 C-94.45353442 99.48409637 -98.43044259 100.36067818 -102.40732765 101.23736572 C-105.03273099 101.81477139 -107.65900716 102.38806709 -110.28536987 102.96109009 C-113.28073598 103.61608066 -116.26975161 104.29182322 -119.25491333 104.99179077 C-120.49860687 105.2770462 -121.74230042 105.56230164 -123.02368164 105.85620117 C-124.0721376 106.10383713 -125.12059357 106.35147308 -126.20082092 106.60661316 C-129.15598198 107.02192116 -131.16206189 106.89843288 -134 106 C-136.74404662 102.52308594 -137.67625631 98.99262133 -138.60546875 94.7109375 C-138.86650391 93.52242188 -139.12753906 92.33390625 -139.39648438 91.109375 C-139.65751953 89.87703125 -139.91855469 88.6446875 -140.1875 87.375 C-140.46013672 86.13492188 -140.73277344 84.89484375 -141.01367188 83.6171875 C-143 74.4571781 -143 74.4571781 -143 71 C-136.92102127 67.96051063 -126.44442252 69.46540408 -120.1875 71.4375 C-114.91170089 73.57908364 -111.43741201 77.06382179 -107.6796875 81.26953125 C-102.86120104 84.38117775 -96.89030044 82.22538743 -91.48991394 81.12719727 C-89.88831208 80.77834735 -88.28779109 80.42450796 -86.68823242 80.06640625 C-85.80576843 79.8727951 -84.92330444 79.67918396 -84.01409912 79.47970581 C-81.12688745 78.84508926 -78.2411859 78.20387494 -75.35546875 77.5625 C-73.33775836 77.11752777 -71.31996007 76.67295394 -69.30207825 76.22875977 C-64.01080084 75.06280541 -58.72080002 73.89115631 -53.43103027 72.71838379 C-49.10694558 71.76067657 -44.7819985 70.80690005 -40.45699596 69.85334778 C-31.52536836 67.88414461 -22.5943089 65.91236071 -13.66479492 63.93359375 C-12.84239822 63.7517453 -12.02000153 63.56989685 -11.17268372 63.38253784 C-7.76993679 62.62759221 -4.38172965 61.84543241 -1 61 C-0.505 30.805 -0.505 30.805 0 0 Z " fill="#007371" transform="translate(250,105)"></path><path d="M0 0 C22.11 0 44.22 0 67 0 C67 31.35 67 62.7 67 95 C44.89 95 22.78 95 0 95 C0 63.65 0 32.3 0 0 Z " fill="#E8EFFF" transform="translate(5,350)"></path><path d="M0 0 C0.5671875 0.28488281 1.134375 0.56976563 1.71875 0.86328125 C3.80791488 0.16266641 3.80791488 0.16266641 5.71875 -1.13671875 C13.68186537 -5.28417467 20.72526947 -6.57252913 29.46875 -3.88671875 C36.30274335 -1.28837753 39.68823294 2.36474798 42.76953125 8.9453125 C44.99661708 15.79153931 44.97478858 24.30072313 41.93945312 30.94384766 C40.44994487 33.28595043 38.71103085 34.80125368 36.59375 36.58984375 C35.86929688 37.20682129 35.14484375 37.82379883 34.3984375 38.45947266 C33.84414063 38.92272949 33.28984375 39.38598633 32.71875 39.86328125 C33.39224991 39.86914749 34.06574982 39.87501373 34.75965881 39.88105774 C41.78430081 39.9451075 48.8084896 40.02955762 55.83276367 40.12573242 C58.45249447 40.15893868 61.07229606 40.18698391 63.69213867 40.2097168 C67.46303411 40.24334079 71.23328322 40.29566321 75.00390625 40.3515625 C76.17083511 40.35795242 77.33776398 40.36434235 78.54005432 40.3709259 C84.67575868 40.48127454 89.33161307 40.8227944 94.71875 43.86328125 C99.6125164 49.08329875 98.93409857 55.00724116 98.96875 61.73828125 C98.9996875 63.22908203 98.9996875 63.22908203 99.03125 64.75 C99.08068995 73.9829113 99.08068995 73.9829113 95.71875 77.86328125 C92.71875 79.86328125 92.71875 79.86328125 89.28125 79.80078125 C85.71875 78.86328125 85.71875 78.86328125 81.71875 73.86328125 C81.71875 68.58328125 81.71875 63.30328125 81.71875 57.86328125 C29.57875 57.86328125 -22.56125 57.86328125 -76.28125 57.86328125 C-76.28125 63.14328125 -76.28125 68.42328125 -76.28125 73.86328125 C-80.28125 78.86328125 -80.28125 78.86328125 -83.71875 79.98828125 C-87.28125 79.86328125 -87.28125 79.86328125 -90.15625 77.55078125 C-94.11229961 72.54754204 -93.49948235 68.30797213 -93.53125 62.11328125 C-93.551875 61.12328125 -93.5725 60.13328125 -93.59375 59.11328125 C-93.62321174 53.6039354 -93.43609935 49.5993933 -90.28125 44.86328125 C-86.19172608 41.03759759 -82.21316853 40.74521572 -76.77832031 40.65795898 C-75.67748108 40.63801376 -74.57664185 40.61806854 -73.44244385 40.59751892 C-71.66882477 40.57245018 -71.66882477 40.57245018 -69.859375 40.546875 C-68.64425232 40.5260939 -67.42912964 40.50531281 -66.17718506 40.48390198 C-62.29526427 40.41851297 -58.4132758 40.35957074 -54.53125 40.30078125 C-51.89973258 40.25758593 -49.26822201 40.21397131 -46.63671875 40.16992188 C-40.1849674 40.06284242 -33.73314871 39.96105611 -27.28125 39.86328125 C-27.83554688 39.39277344 -28.38984375 38.92226563 -28.9609375 38.4375 C-30.04761719 37.50357422 -30.04761719 37.50357422 -31.15625 36.55078125 C-31.87554687 35.93589844 -32.59484375 35.32101563 -33.3359375 34.6875 C-38.43649253 29.9044494 -38.49984544 25.1189541 -38.71875 18.42578125 C-38.53889401 11.13082213 -37.77219051 6.30015852 -32.515625 1.125 C-23.13448494 -6.61259387 -9.74633477 -7.92958378 0 0 Z M-23.28125 8.30078125 C-26.10656551 11.92071675 -27.1113074 15.28255564 -27.28125 19.86328125 C-26.57720931 23.32370767 -25.14050439 25.94204085 -22.7109375 28.546875 C-19.04669964 30.53216143 -15.6242776 30.18314284 -11.53125 30.05078125 C-10.73847656 30.03724609 -9.94570313 30.02371094 -9.12890625 30.00976562 C-7.17939436 29.97453348 -5.23023374 29.92072946 -3.28125 29.86328125 C-3.14531557 27.319797 -3.04676093 24.78366629 -2.96875 22.23828125 C-2.92685547 21.52542969 -2.88496094 20.81257813 -2.84179688 20.078125 C-2.74894468 16.02976929 -3.07412454 13.59923812 -5.67578125 10.40234375 C-9.01636382 7.14690347 -10.55446598 6.68008619 -15.09375 6.55078125 C-18.47573565 6.60934377 -20.18040015 6.81495736 -23.28125 8.30078125 Z M10.09375 11.42578125 C8.02845011 15.08699469 8.39789493 18.48953228 8.53125 22.61328125 C8.54478516 23.40605469 8.55832031 24.19882813 8.57226562 25.015625 C8.60749777 26.96513689 8.66130179 28.91429751 8.71875 30.86328125 C10.94764496 30.91757098 13.17692471 30.95620463 15.40625 30.98828125 C16.64761719 31.01148438 17.88898438 31.0346875 19.16796875 31.05859375 C23.7652712 30.80571683 26.51646081 29.87060462 30.03125 26.92578125 C32.56334204 22.3305031 32.63519002 17.99226488 31.71875 12.86328125 C29.5171526 9.96644257 27.93280538 8.47030894 24.71875 6.86328125 C18.36471189 6.44662301 14.83824088 6.86377079 10.09375 11.42578125 Z " fill="#60E4FF" transform="translate(276.28125,219.13671875)"></path><path d="M0 0 C17.49 0 34.98 0 53 0 C53.495 7.92 53.495 7.92 54 16 C58.15807955 21.05650237 58.15807955 21.05650237 61.5625 21.5625 C64.73512066 20.83035677 65.91282925 19.44702777 68 17 C68.66 16.34 69.32 15.68 70 15 C70 36.45 70 57.9 70 80 C69.67 80 69.34 80 69 80 C68.67 70.1 68.34 60.2 68 50 C40.86983418 67.81093476 13.83780934 85.75116384 -13 104 C-14.45303174 101.09393652 -13.902193 98.60564241 -13.75 95.375 C-13.72182575 89.86975235 -14.10725602 86.28807456 -17.22265625 81.74609375 C-23.41915329 75.65854611 -30.37598106 73.06285483 -38.4375 70.1875 C-39.55060547 69.78080078 -40.66371094 69.37410156 -41.81054688 68.95507812 C-44.53704044 67.96043455 -47.26669893 66.97574606 -50 66 C-46.31298692 62.02874582 -41.71029548 59.50194523 -37.125 56.6875 C-36.22652344 56.11193359 -35.32804687 55.53636719 -34.40234375 54.94335938 C-33.52964844 54.40904297 -32.65695312 53.87472656 -31.7578125 53.32421875 C-30.9652002 52.83010498 -30.17258789 52.33599121 -29.35595703 51.8269043 C-27 51 -27 51 -22 53 C-14.74 57.29 -7.48 61.58 0 66 C0 44.22 0 22.44 0 0 Z " fill="#4CC7FE" transform="translate(305,277)"></path><path d="M0 0 C3.53309054 3.3778629 4.69742587 6.54224101 5.703125 11.25390625 C5.9609375 12.43791016 6.21875 13.62191406 6.484375 14.84179688 C6.73703125 16.06962891 6.9896875 17.29746094 7.25 18.5625 C7.6521875 20.41004883 7.6521875 20.41004883 8.0625 22.29492188 C10 31.36459662 10 31.36459662 10 36 C2.41391706 39.44449171 -6.2490609 38.7967306 -14 36 C-20.21509229 33.57013091 -25.45479942 29.90784957 -30 25 C-30 24.34 -30 23.68 -30 23 C-30.73124368 23.16031047 -31.46248735 23.32062094 -32.21588993 23.4857893 C-50.11601902 27.410018 -68.01619732 31.33402214 -85.91642857 35.25778484 C-94.57329697 37.15539139 -103.23014948 39.05307036 -111.88696289 40.95092773 C-119.44365999 42.60760334 -127.00038863 44.26413499 -134.55715317 45.92050296 C-138.54799238 46.79526042 -142.53881714 47.67008371 -146.52960396 48.54508018 C-147.29397213 48.71266447 -148.05834031 48.88024875 -148.84587115 49.05291134 C-150.36191714 49.38529795 -151.87795993 49.71769916 -153.3939994 50.05011553 C-156.99944718 50.84054722 -160.60503528 51.63032719 -164.21096134 52.41857433 C-165.57139904 52.71599884 -166.93183425 53.01343471 -168.29226685 53.31088257 C-168.94691223 53.45400314 -169.60155761 53.59712372 -170.27604073 53.74458128 C-174.5503264 54.68001214 -178.82223283 55.62576506 -183.0932312 56.57608032 C-184.16667502 56.81347585 -185.24011885 57.05087137 -186.34609127 57.2954607 C-188.30239655 57.72821092 -190.25801364 58.16409033 -192.21275425 58.60385418 C-193.0599097 58.79052056 -193.90706514 58.97718695 -194.77989197 59.16950989 C-195.50494903 59.33132154 -196.23000608 59.49313318 -196.97703457 59.65984821 C-199 60 -199 60 -203 60 C-203.1134375 60.86882812 -203.226875 61.73765625 -203.34375 62.6328125 C-205.28495824 72.59305953 -210.79508765 80.23287994 -219 86 C-223.47337382 88.72150612 -228.03855534 90.35868953 -233 92 C-234.00506095 87.55436187 -235.00168443 83.10694509 -235.99072266 78.65771484 C-236.3279583 77.14613608 -236.66744622 75.63505789 -237.00927734 74.12451172 C-237.5017839 71.94628302 -237.98601482 69.76634981 -238.46875 67.5859375 C-238.62186646 66.91694427 -238.77498291 66.24795105 -238.93273926 65.5586853 C-239.78984454 61.64326133 -240.41767372 58.00174633 -240 54 C-237.52825403 50.49466554 -234.26304283 50.07086888 -230.2355957 49.13110352 C-229.53670133 48.96557511 -228.83780695 48.80004671 -228.11773396 48.6295023 C-225.74797685 48.07327222 -223.37455893 47.53534153 -221 47 C-220.16061764 46.80844707 -219.32123528 46.61689415 -218.45641708 46.41953659 C-211.72100297 44.88390855 -204.97665512 43.38981861 -198.23046875 41.90234375 C-196.05682187 41.42203361 -193.88318207 40.94169138 -191.70954895 40.46131897 C-187.17742105 39.4604093 -182.64486643 38.46145757 -178.11206055 37.46362305 C-172.35570248 36.19604414 -166.60098894 34.92116068 -160.8466444 33.64447689 C-156.3645714 32.65137328 -151.88136677 31.66345352 -147.39785194 30.67688179 C-145.27795967 30.20954478 -143.15846707 29.7403903 -141.03941917 29.26923943 C-130.18656878 26.85824206 -119.36472609 24.58262298 -108.35856915 22.98453426 C-101.68587846 22.01205735 -95.14646052 20.57699886 -88.59399414 18.99291992 C-83.64738537 17.80482156 -78.6960067 16.63812823 -73.7421875 15.48046875 C-72.87241776 15.27696304 -72.00264801 15.07345734 -71.10652161 14.86378479 C-59.22934772 12.10115652 -47.29469302 9.60055389 -35.36108398 7.09521484 C-33.7002482 6.74498679 -32.03951972 6.3942494 -30.37890625 6.04296875 C-29.58433517 5.87514893 -28.7897641 5.7073291 -27.97111511 5.53442383 C-21.36297771 4.1194223 -14.82972283 2.46892744 -8.30053711 0.7277832 C-2.73535669 -0.49936398 -2.73535669 -0.49936398 0 0 Z " fill="#008C72" transform="translate(327,28)"></path><path d="M0 0 C31.02 0 62.04 0 94 0 C94 15.84 94 31.68 94 48 C62.98 48 31.96 48 0 48 C0 32.16 0 16.32 0 0 Z " fill="#CAD1FE" transform="translate(413,114)"></path><path d="M0 0 C22.11 0 44.22 0 67 0 C67 16.17 67 32.34 67 49 C44.89 49 22.78 49 0 49 C0 32.83 0 16.66 0 0 Z " fill="#CAD1FE" transform="translate(5,445)"></path><path d="M0 0 C17.49 0 34.98 0 53 0 C53 21.12 53 42.24 53 64 C48.5205441 63.25342402 45.31459774 62.5121141 41.19750977 60.91455078 C40.07937393 60.48385284 38.9612381 60.05315491 37.80921936 59.60940552 C36.01840187 58.90942947 36.01840187 58.90942947 34.19140625 58.1953125 C32.93897692 57.71021839 31.68636443 57.22559695 30.43357849 56.74142456 C27.81398547 55.727709 25.19585493 54.71033851 22.57885742 53.68994141 C19.24097818 52.38846914 15.90080977 51.09301021 12.55967808 49.79991341 C9.35285254 48.55860622 6.1470345 47.31470782 2.94140625 46.0703125 C1.15362511 45.37640915 1.15362511 45.37640915 -0.67027283 44.66848755 C-1.79156082 44.23148529 -2.91284882 43.79448303 -4.06811523 43.34423828 C-5.0470726 42.96308868 -6.02602997 42.58193909 -7.03465271 42.1892395 C-10.37908191 40.84797086 -13.68798893 39.41943331 -17 38 C-17 30.41 -17 22.82 -17 15 C-15 17 -13 19 -11 21 C-7.55652459 20.90137027 -7.55652459 20.90137027 -4 20 C0.55114005 14.69421454 0.55114005 14.69421454 0 0 Z " fill="#4DC7FF" transform="translate(200,277)"></path><path d="M0 0 C17.16 0 34.32 0 52 0 C52 21.78 52 43.56 52 66 C48.28741156 64.51496463 45.5853914 63.2286398 42.3125 61.109375 C41.44882812 60.56539063 40.58515625 60.02140625 39.6953125 59.4609375 C37.89133338 58.31580293 36.0944467 57.15942176 34.3046875 55.9921875 C33.44101562 55.45335937 32.57734375 54.91453125 31.6875 54.359375 C30.90761719 53.85889648 30.12773437 53.35841797 29.32421875 52.84277344 C26.9928903 51.7453599 26.9928903 51.7453599 24.5065918 52.67626953 C22.01996269 53.98945771 19.60135569 55.34513631 17.20703125 56.8203125 C16.32982422 57.35527344 15.45261719 57.89023437 14.54882812 58.44140625 C12.71262178 59.57117775 10.87668767 60.70139181 9.04101562 61.83203125 C8.16767578 62.36441406 7.29433594 62.89679688 6.39453125 63.4453125 C5.20114136 64.18031982 5.20114136 64.18031982 3.98364258 64.93017578 C2 66 2 66 0 66 C0 44.22 0 22.44 0 0 Z " fill="#4D7ED2" transform="translate(253,277)"></path><path d="M0 0 C2.64927972 1.12084911 4.28975313 2.27467654 6.40234375 4.27734375 C10.95168078 8.0957338 16.43675499 9.81544417 21.9375 11.875 C23.79547658 12.58759246 25.65344885 13.30019624 27.5112915 14.01313782 C29.54455002 14.7910596 31.5798849 15.56332784 33.61572266 16.33447266 C38.28573305 18.10524498 42.94599416 19.90093836 47.60546875 21.69921875 C54.27209119 24.27126668 60.94135029 26.83628565 67.61328125 29.39453125 C73.38647916 31.60844878 79.15534641 33.83292172 84.91796875 36.07421875 C86.0972998 36.53175537 87.27663086 36.98929199 88.49169922 37.46069336 C90.61559905 38.28530114 92.73842957 39.11267182 94.85986328 39.94360352 C111.59941705 46.43014472 126.99438859 49.32252178 144.06445312 41.91699219 C149.17562065 39.49550565 154.07057127 36.68047323 158.9296875 33.79296875 C162 32 162 32 163 32 C163 37.94 163 43.88 163 50 C145.63924567 60.14143075 129.58521334 68.76656982 108.80737305 63.82617188 C102.12296773 61.8590419 95.66870015 59.16881964 89.1875 56.625 C87.50799188 55.97092834 85.82821558 55.31754496 84.14819336 54.66479492 C81.43058943 53.60886797 78.71318335 52.55245918 75.99665833 51.49375916 C68.39206725 48.53199814 60.77230381 45.6109573 53.1484375 42.69921875 C50.78878604 41.79679674 48.42916683 40.89429041 46.06958008 39.99169922 C42.58177287 38.65754481 39.09361619 37.32435669 35.60409546 35.99468994 C32.32964671 34.74635633 29.05721699 33.49285845 25.78515625 32.23828125 C24.81270966 31.86902023 23.84026306 31.49975922 22.83834839 31.11930847 C12.96827734 27.3239579 5.19024604 24.04723198 -0.375 14.6875 C-1.43379736 10.13467137 -2.13810926 4.27621852 0 0 Z " fill="#FDAA91" transform="translate(250,87)"></path><path d="M0 0 C0 5.61 0 11.22 0 17 C-13.29302495 19.91269485 -26.58609501 22.82518376 -39.87922001 25.73742199 C-46.05418572 27.09023088 -52.22913686 28.44310621 -58.40405273 29.79614258 C-64.3822367 31.10606869 -70.36046152 32.41580825 -76.33871269 33.72542763 C-78.60003502 34.22083436 -80.86134352 34.71630419 -83.1226368 35.21184349 C-84.19930548 35.44778032 -85.27597416 35.68371716 -86.38526917 35.92680359 C-87.44503181 36.15914357 -88.50479445 36.39148355 -89.5966711 36.63086414 C-91.6757441 37.08588332 -93.75510752 37.53957777 -95.83477879 37.99185467 C-101.06572812 39.130393 -106.29008185 40.29140953 -111.50753784 41.49038696 C-112.55840545 41.72832883 -113.60927305 41.96627069 -114.69198513 42.21142292 C-116.68539272 42.6631673 -118.67707308 43.12262868 -120.66660404 43.59115124 C-121.55771098 43.79139558 -122.44881792 43.99163992 -123.3669281 44.19795227 C-124.53228419 44.46732086 -124.53228419 44.46732086 -125.72118282 44.74213123 C-128.40518144 45.04584994 -130.41395326 44.76519587 -133 44 C-135.74404662 40.52308594 -136.67625631 36.99262133 -137.60546875 32.7109375 C-137.86650391 31.52242187 -138.12753906 30.33390625 -138.39648438 29.109375 C-138.65751953 27.87703125 -138.91855469 26.6446875 -139.1875 25.375 C-139.46013672 24.13492188 -139.73277344 22.89484375 -140.01367188 21.6171875 C-142 12.4571781 -142 12.4571781 -142 9 C-135.92102127 5.96051063 -125.44442252 7.46540408 -119.1875 9.4375 C-113.91170089 11.57908364 -110.43741201 15.06382179 -106.6796875 19.26953125 C-101.85990157 22.38201692 -95.88932414 20.22776424 -90.48991394 19.12046814 C-88.88829307 18.76861698 -87.28777281 18.41172845 -85.68823242 18.05053711 C-84.80576843 17.85531967 -83.92330444 17.66010223 -83.01409912 17.45896912 C-81.1148879 17.03819155 -79.21615376 16.61525583 -77.31786156 16.19035149 C-74.31356261 15.51796481 -71.30800997 14.85146326 -68.30207825 14.18641663 C-61.92937968 12.7753649 -55.55836483 11.35680429 -49.1875 9.9375 C-41.78516156 8.28890971 -34.38215854 6.64340611 -26.97762489 5.00470161 C-24.01653637 4.34784462 -21.05662152 3.68587284 -18.09672546 3.02366638 C-16.2861354 2.6222259 -14.47549462 2.22101407 -12.66479492 1.82006836 C-11.84239822 1.63462463 -11.02000153 1.44918091 -10.17268372 1.25811768 C-6.67232475 0.48786202 -3.60246721 0 0 0 Z " fill="#008C71" transform="translate(249,167)"></path><path d="M0 0 C0.5671875 0.28488281 1.134375 0.56976563 1.71875 0.86328125 C3.80791488 0.16266641 3.80791488 0.16266641 5.71875 -1.13671875 C13.68186537 -5.28417467 20.72526947 -6.57252913 29.46875 -3.88671875 C36.30274335 -1.28837753 39.68823294 2.36474798 42.76953125 8.9453125 C45.03470911 15.90863704 44.88435465 24.31074603 41.91015625 31.078125 C39.17771802 35.17230294 35.11837104 38.66347073 30.71875 40.86328125 C28.96378199 40.97431656 27.204676 41.02248005 25.44628906 41.0402832 C24.34464417 41.05311844 23.24299927 41.06595367 22.10797119 41.07917786 C20.91218445 41.08656479 19.71639771 41.09395172 18.484375 41.1015625 C17.25845642 41.10963425 16.03253784 41.11770599 14.76947021 41.12602234 C12.17022114 41.13987362 9.5709538 41.15059108 6.97167969 41.15844727 C2.99906928 41.17166182 -0.97292782 41.21952879 -4.9453125 41.26367188 C-7.46874387 41.27379934 -9.99218233 41.28231527 -12.515625 41.2890625 C-13.70331482 41.30657059 -14.89100464 41.32407867 -16.11468506 41.34211731 C-23.72101516 41.32214624 -27.35584854 40.58860157 -32.890625 35.3359375 C-39.04090907 27.73233288 -39.0610634 20.26103247 -38.28125 10.86328125 C-36.84885637 4.95239106 -33.3708049 1.40393685 -28.40625 -1.9453125 C-19.43200526 -6.97682839 -8.03612544 -6.53816346 0 0 Z M-23.28125 8.30078125 C-26.10656551 11.92071675 -27.1113074 15.28255564 -27.28125 19.86328125 C-26.57720931 23.32370767 -25.14050439 25.94204085 -22.7109375 28.546875 C-19.04669964 30.53216143 -15.6242776 30.18314284 -11.53125 30.05078125 C-10.73847656 30.03724609 -9.94570313 30.02371094 -9.12890625 30.00976562 C-7.17939436 29.97453348 -5.23023374 29.92072946 -3.28125 29.86328125 C-3.14531557 27.319797 -3.04676093 24.78366629 -2.96875 22.23828125 C-2.92685547 21.52542969 -2.88496094 20.81257813 -2.84179688 20.078125 C-2.74894468 16.02976929 -3.07412454 13.59923812 -5.67578125 10.40234375 C-9.01636382 7.14690347 -10.55446598 6.68008619 -15.09375 6.55078125 C-18.47573565 6.60934377 -20.18040015 6.81495736 -23.28125 8.30078125 Z M10.09375 11.42578125 C8.02845011 15.08699469 8.39789493 18.48953228 8.53125 22.61328125 C8.54478516 23.40605469 8.55832031 24.19882813 8.57226562 25.015625 C8.60749777 26.96513689 8.66130179 28.91429751 8.71875 30.86328125 C10.94764496 30.91757098 13.17692471 30.95620463 15.40625 30.98828125 C16.64761719 31.01148438 17.88898438 31.0346875 19.16796875 31.05859375 C23.7652712 30.80571683 26.51646081 29.87060462 30.03125 26.92578125 C32.56334204 22.3305031 32.63519002 17.99226488 31.71875 12.86328125 C29.5171526 9.96644257 27.93280538 8.47030894 24.71875 6.86328125 C18.36471189 6.44662301 14.83824088 6.86377079 10.09375 11.42578125 Z " fill="#E8EFFF" transform="translate(276.28125,219.13671875)"></path><path d="M0 0 C8.91 0 17.82 0 27 0 C27 25.41 27 50.82 27 77 C18.09 77 9.18 77 0 77 C0 51.59 0 26.18 0 0 Z " fill="#FEFEFF" transform="translate(25,350)"></path><path d="M0 0 C9.24 0 18.48 0 28 0 C27.67 25.41 27.34 50.82 27 77 C18.42 77 9.84 77 1 77 C0.67 51.59 0.34 26.18 0 0 Z " fill="#FEFEFF" transform="translate(446,19)"></path><path d="M0 0 C6.25954778 3.63950905 10.32438026 9.56234271 12.3984375 16.39453125 C13.25506741 23.85944902 11.35029484 30.40391905 6.85546875 36.48046875 C1.63871054 42.13892045 -3.85139319 44.42914533 -11.4765625 44.89453125 C-18.10319352 44.64985564 -23.84123119 42.22330053 -28.4921875 37.45703125 C-33.9307862 30.4871766 -35.60099034 24.19196396 -34.6015625 15.39453125 C-32.46656149 8.55098747 -28.11351354 3.76210239 -21.9765625 0.14453125 C-14.27022236 -3.85134882 -7.79598255 -3.39425086 0 0 Z " fill="#006E72" transform="translate(233.6015625,98.60546875)"></path><path d="M0 0 C7.57171078 -0.06794991 15.14330693 -0.12291616 22.71524906 -0.15543652 C26.23174998 -0.17104978 29.7480303 -0.19220765 33.2644043 -0.22631836 C37.31300905 -0.26534335 41.36138439 -0.27974501 45.41015625 -0.29296875 C46.66458023 -0.30845261 47.91900421 -0.32393646 49.21144104 -0.33988953 C55.56515234 -0.3411089 60.44577824 -0.22416277 66 3 C70.8937664 8.2200175 70.21534857 14.14395991 70.25 20.875 C70.270625 21.86886719 70.29125 22.86273438 70.3125 23.88671875 C70.36193995 33.11963005 70.36193995 33.11963005 67 37 C64 39 64 39 60.5625 38.9375 C57 38 57 38 53 33 C53 27.72 53 22.44 53 17 C35.51 17 18.02 17 0 17 C0 11.39 0 5.78 0 0 Z " fill="#60E4FF" transform="translate(305,260)"></path><path d="M0 0 C0.8102211 0.25307922 1.6204422 0.50615845 2.45521545 0.76690674 C5.02603299 1.57125621 7.59321052 2.38651281 10.16015625 3.203125 C13.52214184 4.26456621 16.88565379 5.3210666 20.25 6.375 C21.07978363 6.6356424 21.90956726 6.89628479 22.76449585 7.16482544 C29.15833084 9.15857011 35.59166201 10.97155433 42.05223083 12.7348938 C47.84500774 14.32416008 53.54471162 16.11582733 59.22265625 18.078125 C64.3152166 19.8201102 69.41068407 21.5432322 74.55078125 23.140625 C75.33356445 23.38425781 76.11634766 23.62789063 76.92285156 23.87890625 C81.98213288 25.14211534 86.4487428 25.09173384 91.34765625 23.328125 C94.24161213 21.44076247 96.71163886 19.37407017 99.28515625 17.08203125 C108.3593469 9.453125 108.3593469 9.453125 112.22265625 9.453125 C111.1248082 18.45547904 107.59635985 24.20199263 101.22265625 30.453125 C94.21920285 35.88437458 87.87999333 37.11153585 79.22265625 36.453125 C75.63276294 35.70654818 72.20021101 34.60759945 68.72265625 33.453125 C66.70192055 32.80958919 64.68108311 32.16637275 62.66015625 31.5234375 C61.61214844 31.18473633 60.56414062 30.84603516 59.484375 30.49707031 C55.03223077 29.07211756 50.5606876 27.71390811 46.08862305 26.35302734 C38.16238926 23.93957051 30.25258345 21.50226411 22.41015625 18.828125 C16.50163098 16.82030806 10.53940872 15.08348405 4.53515625 13.390625 C-7.32824109 10.03582487 -7.32824109 10.03582487 -12.90234375 8.265625 C-13.79179687 7.98332031 -14.68125 7.70101563 -15.59765625 7.41015625 C-17.93976287 6.38181194 -19.24611898 5.49981158 -20.77734375 3.453125 C-20.58984375 0.328125 -20.58984375 0.328125 -19.77734375 -2.546875 C-14.12572 -5.37268687 -5.66413474 -1.82451316 0 0 Z " fill="#FEA990" transform="translate(192.77734375,394.546875)"></path><path d="M0 0 C4.021875 -0.103125 8.04375 -0.20625 12.1875 -0.3125 C13.44715576 -0.35802002 14.70681152 -0.40354004 16.00463867 -0.45043945 C17.0072876 -0.46292725 18.00993652 -0.47541504 19.04296875 -0.48828125 C20.57473755 -0.52755737 20.57473755 -0.52755737 22.13745117 -0.56762695 C26.21945535 0.24181098 27.58876576 1.63128795 30 5 C30.68386169 7.97317179 30.65492513 10.83895699 30.59375 13.87890625 C30.59379028 14.72799057 30.59383057 15.57707489 30.59387207 16.45188904 C30.58852525 18.24135772 30.5709782 20.03082646 30.54199219 21.82006836 C30.50008103 24.55720803 30.50093027 27.29188991 30.5078125 30.02929688 C30.49732115 31.77085041 30.48438334 33.51239128 30.46875 35.25390625 C30.46854858 36.07065323 30.46834717 36.88740021 30.46813965 37.72889709 C30.39921246 41.03999778 30.24754518 43.54170811 28.65820312 46.48413086 C21.60530898 52.93163082 6.09040604 49 0 49 C0 32.83 0 16.66 0 0 Z " fill="#A3A9D2" transform="translate(72,445)"></path><path d="M0 0 C3.3927012 3.52968616 4.68966528 6.5058829 5.703125 11.25390625 C5.9609375 12.43791016 6.21875 13.62191406 6.484375 14.84179688 C6.73703125 16.06962891 6.9896875 17.29746094 7.25 18.5625 C7.518125 19.79419922 7.78625 21.02589844 8.0625 22.29492188 C10 31.36459662 10 31.36459662 10 36 C2.41391706 39.44449171 -6.2490609 38.7967306 -14 36 C-24.77455371 31.78755169 -31.21618757 24.39563339 -36.375 14.3125 C-37.12569051 11.53494512 -36.63421914 9.77126191 -36 7 C-34.80455566 6.73521851 -34.80455566 6.73521851 -33.58496094 6.46508789 C-29.97318392 5.66478084 -26.36159019 4.8636497 -22.75 4.0625 C-21.49574219 3.78470703 -20.24148438 3.50691406 -18.94921875 3.22070312 C-17.74394531 2.95322266 -16.53867187 2.68574219 -15.296875 2.41015625 C-13.63156738 2.04096069 -13.63156738 2.04096069 -11.93261719 1.66430664 C-10.20505419 1.27297307 -8.48016491 0.86879326 -6.76269531 0.43530273 C-4.30417771 -0.17183534 -2.52424231 -0.37863635 0 0 Z " fill="#026F72" transform="translate(327,28)"></path><path d="M0 0 C2.97691636 8.93074909 2.00392615 19.15169686 -1.9375 27.5625 C-8.32448687 38.77835799 -17.10251443 44.06415693 -29 48 C-30.00506095 43.55436187 -31.00168443 39.10694509 -31.99072266 34.65771484 C-32.3279583 33.14613608 -32.66744622 31.63505789 -33.00927734 30.12451172 C-33.5017839 27.94628302 -33.98601482 25.76634981 -34.46875 23.5859375 C-34.62186646 22.91694427 -34.77498291 22.24795105 -34.93273926 21.5586853 C-37.06998494 11.79533053 -37.06998494 11.79533053 -34.95703125 8.25 C-32.07192311 6.40721636 -28.98546926 5.74248087 -25.6875 5 C-24.98343018 4.83338867 -24.27936035 4.66677734 -23.55395508 4.49511719 C-21.37206733 3.98368759 -19.18686175 3.48968397 -17 3 C-16.31679687 2.84466797 -15.63359375 2.68933594 -14.9296875 2.52929688 C-3.76136364 0 -3.76136364 0 0 0 Z " fill="#006F71" transform="translate(123,72)"></path><path d="M0 0 C9.46986167 3.97988225 16.95620386 12.09990772 21.5 21.1875 C22.2442791 23.75864599 22.23614745 25.90015798 22.1875 28.5625 C17.86715358 29.59082709 13.54391284 30.60561153 9.2175293 31.6081543 C7.74726664 31.95083249 6.27784672 32.29714821 4.80932617 32.6472168 C2.69402616 33.15079144 0.57600533 33.64105478 -1.54296875 34.12890625 C-3.45178833 34.57665405 -3.45178833 34.57665405 -5.39916992 35.03344727 C-8.72794881 35.5493949 -10.6976867 35.82075245 -13.8125 34.5625 C-16.55654662 31.08558594 -17.48875631 27.55512133 -18.41796875 23.2734375 C-18.67900391 22.08492187 -18.94003906 20.89640625 -19.20898438 19.671875 C-19.47001953 18.43953125 -19.73105469 17.2071875 -20 15.9375 C-20.27263672 14.69742188 -20.54527344 13.45734375 -20.82617188 12.1796875 C-22.8125 3.0196781 -22.8125 3.0196781 -22.8125 -0.4375 C-16.73352127 -3.47698937 -6.25692252 -1.97209592 0 0 Z " fill="#006E71" transform="translate(129.8125,176.4375)"></path><path d="M0 0 C2.47325559 2.47325559 2.60011018 3.96564182 3.296875 7.37109375 C3.64758057 9.05017822 3.64758057 9.05017822 4.00537109 10.76318359 C4.25109863 11.97570801 4.49682617 13.18823242 4.75 14.4375 C5.27740334 16.98072673 5.80608435 19.52368878 6.3359375 22.06640625 C6.5386174 23.04474426 6.5386174 23.04474426 6.74539185 24.04284668 C7.6915528 28.59061583 8.69385068 33.12326501 9.7265625 37.65234375 C10.00274414 38.86543213 10.27892578 40.07852051 10.56347656 41.32836914 C11.09474977 43.65021205 11.63038984 45.97106112 12.17089844 48.29077148 C12.41098633 49.34723877 12.65107422 50.40370605 12.8984375 51.4921875 C13.11161621 52.41370605 13.32479492 53.33522461 13.54443359 54.28466797 C14 57 14 57 14 63 C6.08 63.495 6.08 63.495 -2 64 C-4.72645117 53.25999303 -7.31055078 42.50226205 -9.71972656 31.68676758 C-10.2583791 29.27498307 -10.80495144 26.8650698 -11.3515625 24.45507812 C-11.69839931 22.90375366 -12.04477141 21.35232521 -12.390625 19.80078125 C-12.63428802 18.73359612 -12.63428802 18.73359612 -12.88287354 17.64485168 C-13.67778897 14.03492334 -14.18486693 10.69868466 -14 7 C-13.32453125 6.74605469 -12.6490625 6.49210937 -11.953125 6.23046875 C-11.06109375 5.88628906 -10.1690625 5.54210937 -9.25 5.1875 C-8.36828125 4.85105469 -7.4865625 4.51460938 -6.578125 4.16796875 C-4.06960192 3.03153178 -2.12720995 1.73457073 0 0 Z " fill="#008C71" transform="translate(109,112)"></path><path d="M0 0 C17.16 0 34.32 0 52 0 C52 5.61 52 11.22 52 17 C34.84 17 17.68 17 0 17 C0 11.39 0 5.78 0 0 Z " fill="#50C6FD" transform="translate(253,260)"></path><path d="M0 0 C6.80526199 0.95337268 12.8576912 3.37351318 19.25 5.8125 C20.44625 6.25142578 21.6425 6.69035156 22.875 7.14257812 C24.01453125 7.57634766 25.1540625 8.01011719 26.328125 8.45703125 C27.3687207 8.84866455 28.40931641 9.24029785 29.48144531 9.64379883 C32.28490453 11.1534165 33.04544822 12.00441772 34 15 C33.85143148 18.04565464 33.58315141 19.46015822 31.32348633 21.55200195 C28.55050091 23.2801281 26.13837316 23.90022367 22.94921875 24.60546875 C21.18868164 24.99702148 21.18868164 24.99702148 19.39257812 25.39648438 C17.55856445 25.78803711 17.55856445 25.78803711 15.6875 26.1875 C14.47642578 26.46013672 13.26535156 26.73277344 12.01757812 27.01367188 C6.25956708 28.27116854 0.90039462 29.39219757 -5 29 C-7.24661767 20.57518373 -6.40188626 11.9797332 -3 4 C-2.04297962 2.63548919 -1.0529852 1.29189781 0 0 Z " fill="#005B72" transform="translate(324,138)"></path><path d="M0 0 C0.89135742 2.51269531 0.89135742 2.51269531 1.60546875 5.828125 C1.99702148 7.61669922 1.99702148 7.61669922 2.39648438 9.44140625 C2.78803711 11.32666016 2.78803711 11.32666016 3.1875 13.25 C3.46013672 14.49136719 3.73277344 15.73273438 4.01367188 17.01171875 C6.17642664 27.08289256 6.17642664 27.08289256 6 32 C3.6875 31.75 3.6875 31.75 0 31 C-0.87011719 30.84080078 -1.74023438 30.68160156 -2.63671875 30.51757812 C-5.84222213 29.69324335 -8.2327788 28.83476785 -11 27 C-13.22970218 22.76569721 -13.9325335 18.4453398 -14.6875 13.75 C-14.92404297 12.52796875 -15.16058594 11.3059375 -15.40429688 10.046875 C-15.98048757 7.03657257 -16.5100843 4.02533274 -17 1 C-16.24074219 0.93941406 -15.48148437 0.87882812 -14.69921875 0.81640625 C-13.70535156 0.73261719 -12.71148437 0.64882812 -11.6875 0.5625 C-10.70136719 0.48128906 -9.71523438 0.40007812 -8.69921875 0.31640625 C-1.56102784 -0.52034261 -1.56102784 -0.52034261 0 0 Z " fill="#048A71" transform="translate(338,65)"></path><path d="M0 0 C0.66 0.33 1.32 0.66 2 1 C-0.97 3.97 -3.94 6.94 -7 10 C-7.33 9.34 -7.66 8.68 -8 8 C-7.04578192 6.85073734 -6.08647955 5.70569459 -5.125 4.5625 C-4.59132812 3.92441406 -4.05765625 3.28632812 -3.5078125 2.62890625 C-2 1 -2 1 0 0 Z " fill="#E3D2BE" transform="translate(259,77)"></path></svg>