<svg xmlns="http://www.w3.org/2000/svg" width="512" height="512"><path d="M0 0 C1.60161987 0.9449231 1.60161987 0.9449231 3.2355957 1.90893555 C8.11802046 4.79929307 12.90284848 7.74236696 17.52734375 11.03125 C30.49680136 19.94214094 42.84604145 20.12821967 58.16235352 19.65673828 C60.75 19.6875 60.75 19.6875 62.75 20.6875 C63.37759245 25.70823959 61.12475743 29.01507174 58.6875 33.1875 C49.81350669 49.1962473 42.00482014 69.48709609 45.9296875 87.96875 C48.49707049 96.47779076 53.08857907 102.21987968 60.625 106.8359375 C65.74161532 109.57992878 71.16396061 111.17652213 76.75 112.6875 C76.23053489 118.31381926 74.68544322 122.58459576 72.1875 127.625 C71.85814453 128.30884766 71.52878906 128.99269531 71.18945312 129.69726562 C70.38482961 131.36481871 69.5686103 133.02676839 68.75 134.6875 C88.17903707 151.52002982 110.66073034 158.65531104 135.74511719 162.05908203 C148.38040999 163.78177271 160.60550927 165.7410129 172.75 169.6875 C173.53036621 169.93338867 174.31073242 170.17927734 175.11474609 170.43261719 C177.47192237 171.19801523 179.79797439 172.02271903 182.125 172.875 C183.16950317 173.22075073 183.16950317 173.22075073 184.23510742 173.57348633 C189.52031642 175.6652353 191.34788998 178.69253899 193.60107422 183.80395508 C194.16979248 185.23130981 194.16979248 185.23130981 194.75 186.6875 C195.14848145 187.67322998 195.54696289 188.65895996 195.95751953 189.67456055 C197.22540629 192.91367436 198.43371123 196.16946693 199.625 199.4375 C200.05554688 200.61038574 200.48609375 201.78327148 200.9296875 202.99169922 C203.67906494 210.55351003 206.29855655 218.14891881 208.75 225.8125 C209.02827637 226.68100586 209.30655273 227.54951172 209.59326172 228.44433594 C212.14048696 236.59354747 214.06180347 244.1129046 213.75 252.6875 C211.42263689 253.4632877 209.98637344 253.73815145 207.5625 253.21875 C204.14072779 252.57241525 200.91759518 252.59247575 197.4375 252.625 C196.18324219 252.63402344 194.92898438 252.64304687 193.63671875 252.65234375 C192.68410156 252.66394531 191.73148437 252.67554688 190.75 252.6875 C190.53085937 253.51121094 190.31171875 254.33492188 190.0859375 255.18359375 C188.42309158 259.54491771 186.0840353 262.9739899 183.375 266.75 C182.84479248 267.4922583 182.31458496 268.2345166 181.76831055 268.99926758 C173.4976877 280.36390127 164.87342537 289.87696662 152.3125 296.5 C142.85425918 301.83653037 135.69277972 310.85353672 128.47167969 318.79980469 C96.73686915 353.59469338 96.73686915 353.59469338 79.69702148 361.66845703 C72.24497388 365.19044552 72.24497388 365.19044552 67.875 372 C67.14335536 374.82471495 67.14335536 374.82471495 66.75 377.6875 C66.59660156 378.57566406 66.44320312 379.46382813 66.28515625 380.37890625 C65.51683107 386.30968599 65.95453031 391.97733095 66.4765625 397.91015625 C69.25849519 436.3405693 50.12263676 468.49137799 26.75 497.6875 C26.08742187 498.54085938 25.42484375 499.39421875 24.7421875 500.2734375 C24.14664063 501.00820313 23.55109375 501.74296875 22.9375 502.5 C22.43605469 503.12519531 21.93460938 503.75039063 21.41796875 504.39453125 C19.07538642 506.21044402 17.65253574 506.04787919 14.75 505.6875 C13.15576172 504.09448242 13.15576172 504.09448242 11.8046875 501.85546875 C11.3003418 501.03095215 10.79599609 500.20643555 10.27636719 499.35693359 C7.74801376 494.93514595 5.27230325 490.49440189 2.875 486 C-1.25409316 478.20731194 -1.25409316 478.20731194 -5.76953125 470.63671875 C-10.19649215 463.64389208 -11.89342281 458.36380236 -12.078125 450.04296875 C-12.52217076 441.37398441 -16.47952537 434.08590171 -20.5625 426.625 C-27.0011751 414.78703032 -31.10078823 402.42772315 -35.10546875 389.59375 C-35.3624202 388.77210861 -35.61937164 387.95046722 -35.8841095 387.10392761 C-37.17983206 382.95453126 -38.46317795 378.80202061 -39.72387695 374.6418457 C-43.40487211 362.62828549 -47.86571409 351.18406129 -53.625 340 C-60.58109699 325.82026384 -56.07412529 305.63669619 -54.25 290.5 C-52.45695946 275.63891559 -52.45695946 275.63891559 -51.875 260.6875 C-51.87371094 259.90608643 -51.87242188 259.12467285 -51.87109375 258.31958008 C-51.92448597 253.13172077 -51.92448597 253.13172077 -54.25 248.6875 C-58.50142121 247.00911284 -61.23342118 248.15137438 -65.3125 249.875 C-67.02566406 250.56722656 -67.02566406 250.56722656 -68.7734375 251.2734375 C-69.92070313 251.74007813 -71.06796875 252.20671875 -72.25 252.6875 C-80.48714573 255.88066514 -88.12844634 258.68505962 -96.84765625 255.83984375 C-106.81961535 251.40284837 -112.18398979 243.56689671 -116.25 233.6875 C-117.37955145 230.220206 -117.44957499 226.88480302 -117.5 223.25 C-117.52578125 222.13753906 -117.5515625 221.02507812 -117.578125 219.87890625 C-117.20395165 216.23962498 -116.46049539 214.58088853 -114.25 211.6875 C-111.77319336 210.80029297 -111.77319336 210.80029297 -108.83984375 210.4296875 C-107.76669922 210.27886719 -106.69355469 210.12804687 -105.58789062 209.97265625 C-104.46576172 209.83730469 -103.34363281 209.70195312 -102.1875 209.5625 C-94.27633324 208.52878663 -86.818401 207.26610978 -79.25 204.6875 C-80.02091052 200.16109244 -81.56037158 197.25121008 -84.0625 193.375 C-89.11988885 185.37259024 -92.73870335 177.67375914 -95.90625 168.73828125 C-97.30239636 165.568542 -99.08764865 163.36643846 -101.25 160.6875 C-101.3452352 156.21144543 -99.85546284 153.48450294 -96.82421875 150.21875 C-96.30472656 149.7134375 -95.78523438 149.208125 -95.25 148.6875 C-94.65832031 148.0996875 -94.06664063 147.511875 -93.45703125 146.90625 C-88.60172222 142.64210634 -88.60172222 142.64210634 -85.15625 142.7578125 C-83.66710043 143.14089083 -82.18658642 143.55860975 -80.71484375 144.00390625 C-72.14665829 146.3801859 -65.09437668 144.86419539 -57.34130859 140.73828125 C-49.27349029 136.16794202 -40.7389103 130.67263884 -37.25 121.6875 C-36.98541186 119.83805562 -36.75794783 117.98302356 -36.5625 116.125 C-36.06140189 112.66503685 -35.7166035 111.14347875 -33.19140625 108.67578125 C-31.46495807 107.50642137 -29.7067184 106.38281545 -27.921875 105.3046875 C-20.34202788 100.71688529 -13.61709027 94.36789339 -10.73046875 85.8515625 C-9.21151718 79.01010585 -11.49485294 73.04185261 -14.734375 67.046875 C-18.76736167 60.7687205 -23.78712069 57.17745483 -30.25 53.6875 C-32.87751069 48.43247863 -32.31911478 41.0469406 -32.5 35.25 C-32.52578125 34.46753906 -32.5515625 33.68507812 -32.578125 32.87890625 C-32.16705685 30.13355822 -30.90025552 28.87917794 -29.25 26.6875 C-28.37287727 20.40345635 -31.10454067 15.6620155 -34.6796875 10.73046875 C-35.72741864 9.36737575 -36.8170595 8.03551224 -37.9453125 6.73828125 C-39.55516579 4.20782323 -39.3511999 2.63108397 -39.25 -0.3125 C-35.90034883 -1.32806418 -32.54466389 -2.32208089 -29.1875 -3.3125 C-28.24455078 -3.59867187 -27.30160156 -3.88484375 -26.33007812 -4.1796875 C-15.11138809 -7.46320653 -9.86701663 -6.07967691 0 0 Z " fill="#EEE5D2" transform="translate(151.25,6.3125)"></path><path d="M0 0 C1.60161987 0.9449231 1.60161987 0.9449231 3.2355957 1.90893555 C8.11802046 4.79929307 12.90284848 7.74236696 17.52734375 11.03125 C30.49680136 19.94214094 42.84604145 20.12821967 58.16235352 19.65673828 C60.75 19.6875 60.75 19.6875 62.75 20.6875 C63.37759245 25.70823959 61.12475743 29.01507174 58.6875 33.1875 C49.81350669 49.1962473 42.00482014 69.48709609 45.9296875 87.96875 C48.49707049 96.47779076 53.08857907 102.21987968 60.625 106.8359375 C65.74161532 109.57992878 71.16396061 111.17652213 76.75 112.6875 C76.23053489 118.31381926 74.68544322 122.58459576 72.1875 127.625 C71.85814453 128.30884766 71.52878906 128.99269531 71.18945312 129.69726562 C70.38482961 131.36481871 69.5686103 133.02676839 68.75 134.6875 C88.17903707 151.52002982 110.66073034 158.65531104 135.74511719 162.05908203 C148.38040999 163.78177271 160.60550927 165.7410129 172.75 169.6875 C173.53036621 169.93338867 174.31073242 170.17927734 175.11474609 170.43261719 C177.47192237 171.19801523 179.79797439 172.02271903 182.125 172.875 C183.16950317 173.22075073 183.16950317 173.22075073 184.23510742 173.57348633 C189.50067098 175.65746014 191.33720416 178.65816601 193.58349609 183.7512207 C193.96844238 184.72019287 194.35338867 185.68916504 194.75 186.6875 C195.37962646 188.26180786 195.37962646 188.26180786 196.02197266 189.86791992 C197.34920335 193.29331316 198.61930034 196.73528596 199.875 200.1875 C200.30425781 201.34636719 200.73351562 202.50523437 201.17578125 203.69921875 C203.61116773 210.33096347 205.71264327 216.8963109 207.75 223.6875 C100.5 223.6875 -6.75 223.6875 -117.25 223.6875 C-117.25 215.18198798 -117.25 215.18198798 -114.25 211.6875 C-111.77319336 210.80029297 -111.77319336 210.80029297 -108.83984375 210.4296875 C-107.76669922 210.27886719 -106.69355469 210.12804687 -105.58789062 209.97265625 C-104.46576172 209.83730469 -103.34363281 209.70195312 -102.1875 209.5625 C-94.27633324 208.52878663 -86.818401 207.26610978 -79.25 204.6875 C-80.02091052 200.16109244 -81.56037158 197.25121008 -84.0625 193.375 C-89.11988885 185.37259024 -92.73870335 177.67375914 -95.90625 168.73828125 C-97.30239636 165.568542 -99.08764865 163.36643846 -101.25 160.6875 C-101.3452352 156.21144543 -99.85546284 153.48450294 -96.82421875 150.21875 C-96.30472656 149.7134375 -95.78523438 149.208125 -95.25 148.6875 C-94.65832031 148.0996875 -94.06664063 147.511875 -93.45703125 146.90625 C-88.60172222 142.64210634 -88.60172222 142.64210634 -85.15625 142.7578125 C-83.66710043 143.14089083 -82.18658642 143.55860975 -80.71484375 144.00390625 C-72.14665829 146.3801859 -65.09437668 144.86419539 -57.34130859 140.73828125 C-49.27349029 136.16794202 -40.7389103 130.67263884 -37.25 121.6875 C-36.98541186 119.83805562 -36.75794783 117.98302356 -36.5625 116.125 C-36.06140189 112.66503685 -35.7166035 111.14347875 -33.19140625 108.67578125 C-31.46495807 107.50642137 -29.7067184 106.38281545 -27.921875 105.3046875 C-20.34202788 100.71688529 -13.61709027 94.36789339 -10.73046875 85.8515625 C-9.21151718 79.01010585 -11.49485294 73.04185261 -14.734375 67.046875 C-18.76736167 60.7687205 -23.78712069 57.17745483 -30.25 53.6875 C-32.87751069 48.43247863 -32.31911478 41.0469406 -32.5 35.25 C-32.52578125 34.46753906 -32.5515625 33.68507812 -32.578125 32.87890625 C-32.16705685 30.13355822 -30.90025552 28.87917794 -29.25 26.6875 C-28.37287727 20.40345635 -31.10454067 15.6620155 -34.6796875 10.73046875 C-35.72741864 9.36737575 -36.8170595 8.03551224 -37.9453125 6.73828125 C-39.55516579 4.20782323 -39.3511999 2.63108397 -39.25 -0.3125 C-35.90034883 -1.32806418 -32.54466389 -2.32208089 -29.1875 -3.3125 C-28.24455078 -3.59867187 -27.30160156 -3.88484375 -26.33007812 -4.1796875 C-15.11138809 -7.46320653 -9.86701663 -6.07967691 0 0 Z " fill="#F38A29" transform="translate(151.25,6.3125)"></path><path d="M0 0 C44.88 0 89.76 0 136 0 C132.63791052 3.36208948 130.67506172 4.75723155 126.51611328 6.63598633 C118.66506198 10.22926527 118.66506198 10.22926527 114.125 17.3125 C113.39335536 20.13721495 113.39335536 20.13721495 113 23 C112.76990234 24.33224609 112.76990234 24.33224609 112.53515625 25.69140625 C111.76683107 31.62218599 112.20453031 37.28983095 112.7265625 43.22265625 C115.50849519 81.6530693 96.37263676 113.80387799 73 143 C72.33742188 143.85335937 71.67484375 144.70671875 70.9921875 145.5859375 C70.09886719 146.68808594 70.09886719 146.68808594 69.1875 147.8125 C68.68605469 148.43769531 68.18460937 149.06289063 67.66796875 149.70703125 C65.32538642 151.52294402 63.90253574 151.36037919 61 151 C59.40576172 149.40698242 59.40576172 149.40698242 58.0546875 147.16796875 C57.29816895 145.93119385 57.29816895 145.93119385 56.52636719 144.66943359 C53.99801376 140.24764595 51.52230325 135.80690189 49.125 131.3125 C44.99590684 123.51981194 44.99590684 123.51981194 40.48046875 115.94921875 C36.05350785 108.95639208 34.35657719 103.67630236 34.171875 95.35546875 C33.72782924 86.68648441 29.77047463 79.39840171 25.6875 71.9375 C15.50809582 53.22192947 10.17254981 32.24678671 3.87744141 11.98812866 C3.65967041 11.28845978 3.44189941 10.58879089 3.2175293 9.86791992 C3.02990524 9.26348557 2.84228119 8.65905121 2.64897156 8.03630066 C1.79250506 5.34893589 0.89193409 2.67580228 0 0 Z " fill="#41AD58" transform="translate(105,361)"></path><path d="M0 0 C1.08764648 0.00370605 2.17529297 0.00741211 3.29589844 0.01123047 C9.38921007 0.22575776 13.51690049 0.56672996 18.0625 5 C19.08923828 6.23169922 19.08923828 6.23169922 20.13671875 7.48828125 C23.43721507 11.10875387 27.49123149 12.60050011 31.94140625 14.48828125 C34.3125 15.875 34.3125 15.875 35.23779297 17.63647461 C35.3125 19.875 35.3125 19.875 33.53344727 22.34863281 C28.55454335 27.46811647 28.55454335 27.46811647 26.42797852 29.57617188 C24.88848795 31.1115481 23.38681852 32.67808992 21.88476562 34.25 C20.90576676 35.23648437 19.92470743 36.22092901 18.94140625 37.203125 C18.05525635 38.0993457 17.16910645 38.99556641 16.25610352 39.91894531 C12.28249742 42.55944727 10.00207015 42.25034136 5.3125 41.875 C5.14645264 42.97900146 4.98040527 44.08300293 4.80932617 45.22045898 C4.18551981 49.35354232 3.55118738 53.48495514 2.91381836 57.6159668 C2.64047859 59.39711002 2.36991697 61.17868207 2.10229492 62.96069336 C1.71499546 65.53619874 1.31741241 68.10994725 0.91796875 70.68359375 C0.74433052 71.86072182 0.74433052 71.86072182 0.56718445 73.06163025 C-0.30335797 78.58054961 -1.81054237 83.61080993 -3.6875 88.875 C-8.3075 88.875 -12.9275 88.875 -17.6875 88.875 C-17.62949219 91.04320312 -17.57148438 93.21140625 -17.51171875 95.4453125 C-17.4726538 97.5601842 -17.44233511 99.67501475 -17.4128418 101.79003906 C-17.38779471 103.25278907 -17.35374608 104.71541512 -17.31030273 106.17773438 C-17.24920644 108.28807219 -17.22119565 110.39674752 -17.19921875 112.5078125 C-17.17303467 113.77512207 -17.14685059 115.04243164 -17.11987305 116.34814453 C-17.86141706 120.95560464 -19.47653485 122.57292788 -22.6875 125.875 C-24.4831543 125.80102539 -24.4831543 125.80102539 -26.6875 124.875 C-27.99080346 122.58384111 -28.9887881 120.48854697 -29.95703125 118.05859375 C-30.24229172 117.36870865 -30.52755219 116.67882355 -30.82145691 115.96803284 C-31.42146325 114.50419893 -32.01357877 113.03710966 -32.59838867 111.56713867 C-33.49091103 109.33522858 -34.41808188 107.12016205 -35.34960938 104.90429688 C-35.92925317 103.47744205 -36.50679453 102.04973098 -37.08203125 100.62109375 C-37.49748955 99.63779335 -37.49748955 99.63779335 -37.92134094 98.6346283 C-41.00562804 90.69647583 -38.49211307 83.99575883 -36.6875 75.875 C-50.5475 75.38 -50.5475 75.38 -64.6875 74.875 C-66.8221875 70.605625 -66.8221875 70.605625 -69 66.25 C-72.74535748 58.93271042 -76.89601557 52.45566988 -82.2824707 46.24169922 C-84.99302055 43.06705775 -85.6875 42.23943155 -85.6875 37.875 C-80.98581457 38.35462596 -78.75313229 39.41526031 -75.1875 42.4375 C-66.82463212 48.15270957 -56.38273129 46.45874093 -46.6875 45.875 C-46.80931641 45.21145508 -46.93113281 44.54791016 -47.05664062 43.86425781 C-47.54481606 39.12696356 -47.47710064 36.04185428 -44.75390625 32.01757812 C-42.00739765 29.07489033 -39.15851035 26.3360234 -36.1875 23.625 C-35.19284542 22.6770611 -34.20063428 21.72655143 -33.2109375 20.7734375 C-28.38990939 16.16255882 -23.4462703 11.69030131 -18.35083008 7.38427734 C-16.4661992 5.75821278 -16.4661992 5.75821278 -14.41796875 2.9921875 C-10.01504503 -0.42181058 -5.42312452 -0.03863093 0 0 Z " fill="#F38929" transform="translate(442.6875,117.125)"></path><path d="M0 0 C7.73944201 5.42021528 13.15381271 13.42971909 15.5703125 22.5625 C16.7242705 35.39021914 14.93277061 45.40785973 6.55078125 55.5234375 C-1.16349896 63.46595085 -9.97652498 66.66069293 -20.8671875 67 C-30.91781474 66.76883557 -39.16097191 63.60501075 -46.4296875 56.5625 C-54.23234072 47.36539671 -57.07531723 39.08508217 -56.77734375 27.0625 C-55.8105184 17.32906728 -51.6247206 8.89459975 -44.1015625 2.62109375 C-30.46783583 -7.39509501 -14.93613462 -8.83681277 0 0 Z " fill="#5A95C6" transform="translate(207.4296875,265.4375)"></path><path d="M0 0 C1.0209375 0.804375 1.0209375 0.804375 2.0625 1.625 C2.0625 2.285 2.0625 2.945 2.0625 3.625 C0.0825 4.285 -1.8975 4.945 -3.9375 5.625 C-3.40538192 9.76531604 -2.18142799 11.9585736 0.5 15.125 C5.32340675 20.84461385 6.64740302 25.25522195 6.0625 32.625 C5.5571875 33.16898438 5.051875 33.71296875 4.53125 34.2734375 C2.16642605 38.05967159 2.92797309 41.85152151 3.25 46.1875 C3.29447266 47.05052734 3.33894531 47.91355469 3.38476562 48.80273438 C3.67068084 54.01304911 3.67068084 54.01304911 6.0625 58.625 C7.114375 59.181875 8.16625 59.73875 9.25 60.3125 C16.4067177 64.2337849 21.13602983 71.13575377 24.0625 78.625 C25.72767911 84.3976209 25.62376322 89.84046827 23.28515625 95.453125 C18.03448488 104.78019619 9.46823411 110.92213294 0.0625 115.625 C-0.25607789 117.46862202 -0.49188301 119.3268098 -0.6875 121.1875 C-1.666065 127.49961772 -3.52123242 131.08500078 -7.9375 135.625 C-8.576875 136.29144531 -9.21625 136.95789063 -9.875 137.64453125 C-18.31210905 145.75594307 -28.60454872 151.93825881 -40.4765625 151.859375 C-44.52476359 151.47383204 -48.17729514 150.11841469 -51.9375 148.625 C-49.0686488 145.53391385 -46.19177013 143.44228177 -42.5625 141.3125 C-35.22400001 136.72349134 -30.7159443 131.9603329 -27.9375 123.625 C-27.90582191 122.29188024 -27.88527712 120.95845648 -27.875 119.625 C-27.60254082 116.67903515 -27.16743199 115.83382495 -24.9375 113.80859375 C-23.19546201 112.62156481 -21.42968242 111.4688027 -19.64453125 110.34765625 C-12.11149164 105.55390377 -5.33736578 99.40209019 -2.41796875 90.7890625 C-0.89901718 83.94760585 -3.18235294 77.97935261 -6.421875 71.984375 C-10.45486167 65.7062205 -15.47462069 62.11495483 -21.9375 58.625 C-24.56501069 53.36997863 -24.00661478 45.9844406 -24.1875 40.1875 C-24.21328125 39.40503906 -24.2390625 38.62257812 -24.265625 37.81640625 C-23.85455685 35.07105822 -22.58775552 33.81667794 -20.9375 31.625 C-20.06037727 25.34095635 -22.79204067 20.5995155 -26.3671875 15.66796875 C-27.41491864 14.30487575 -28.5045595 12.97301224 -29.6328125 11.67578125 C-31.24266579 9.14532323 -31.0386999 7.56858397 -30.9375 4.625 C-27.58784883 3.60943582 -24.23216389 2.61541911 -20.875 1.625 C-19.93205078 1.33882813 -18.98910156 1.05265625 -18.01757812 0.7578125 C-5.93561349 -2.77837227 -5.93561349 -2.77837227 0 0 Z " fill="#E27820" transform="translate(142.9375,1.375)"></path><path d="M0 0 C8.58 0 17.16 0 26 0 C29.18035053 8.646578 32.09180152 17.34244775 34.875 26.125 C35.92005505 29.3926198 36.96755112 32.65944205 38.01660156 35.92578125 C38.63333087 37.85374932 39.24539136 39.78322385 39.85058594 41.71484375 C43.45968433 53.18267657 48.07667495 63.60923321 53.91308594 74.13720703 C58.00952676 81.59357558 60.20638051 87.48701475 59.875 96.125 C60.49809112 107.8620021 68.17108804 118.37530772 74.31396484 128.07470703 C77.06233054 132.51819377 77.06233054 132.51819377 76.74243164 134.9909668 C75.4809928 138.40444271 73.06490917 140.99991208 70.75 143.75 C70.27175781 144.35199219 69.79351562 144.95398438 69.30078125 145.57421875 C65.69244024 149.88662629 65.69244024 149.88662629 62.50537109 150.40844727 C60 150 60 150 58.40576172 148.40698242 C57.95990723 147.66810791 57.51405273 146.9292334 57.0546875 146.16796875 C56.29816895 144.93119385 56.29816895 144.93119385 55.52636719 143.66943359 C52.99801376 139.24764595 50.52230325 134.80690189 48.125 130.3125 C43.99590684 122.51981194 43.99590684 122.51981194 39.48046875 114.94921875 C35.05350785 107.95639208 33.35657719 102.67630236 33.171875 94.35546875 C32.72782924 85.68648441 28.77047463 78.39840171 24.6875 70.9375 C14.85536097 52.86040155 9.60082293 32.69029542 3.4765625 13.1328125 C3.24146469 12.38767899 3.00636688 11.64254547 2.7641449 10.87483215 C1.63460512 7.24663957 0.74755372 3.73776862 0 0 Z " fill="#2D9641" transform="translate(106,362)"></path><path d="M0 0 C2.10358381 1.54262813 2.84054159 2.68108317 4 5 C4.88659443 18.10997006 3.56593142 30.94370117 2 43.9375 C0.77703949 54.16546481 -0.40098786 64.30758092 -0.4375 74.625 C-0.44716797 75.4512085 -0.45683594 76.27741699 -0.46679688 77.12866211 C-0.34719847 85.58585246 2.2280491 93.0699193 6.1875 100.5 C9 105.81021898 9 105.81021898 9 108 C0.42 108 -8.16 108 -17 108 C-18.27875 105.69 -19.5575 103.38 -20.875 101 C-21.27444824 100.28972656 -21.67389648 99.57945312 -22.08544922 98.84765625 C-26.28110446 91.12004135 -27.38843176 83.9822218 -27.375 75.25 C-27.37556396 74.28481445 -27.37612793 73.31962891 -27.37670898 72.32519531 C-27.21927715 61.15871845 -25.8255772 50.12572533 -24.50244141 39.05078125 C-23.22906929 28.37274326 -22.29070444 17.75606424 -22 7 C-20.43880578 6.20576139 -18.87598036 5.41472877 -17.3125 4.625 C-16.00732422 3.96371094 -16.00732422 3.96371094 -14.67578125 3.2890625 C-9.53264112 0.81134536 -5.8120837 -0.5381559 0 0 Z " fill="#E2D4BC" transform="translate(122,253)"></path><path d="M0 0 C3.59806173 0.86849766 7.1050726 0.83211047 10.78125 0.78125 C12.09222656 0.76320312 13.40320313 0.74515625 14.75390625 0.7265625 C15.73230469 0.70335937 16.71070313 0.68015625 17.71875 0.65625 C16.96335938 1.40777344 16.20796875 2.15929687 15.4296875 2.93359375 C12.34141322 6.03337715 12.34141322 6.03337715 9.34375 9.21875 C8.55871094 10.05599609 8.55871094 10.05599609 7.7578125 10.91015625 C6.54596781 12.58177379 6.54596781 12.58177379 6.8046875 14.49609375 C7.71275559 16.845298 7.71275559 16.845298 9.609375 19.39453125 C12.01987028 23.12187118 13.17025539 26.63934819 14.46875 30.84375 C16.66415185 37.53233555 19.38172772 42.76154233 23.88671875 48.26171875 C26.29884983 51.41446151 28.60593141 54.738334 28.84375 58.78125 C26.94084437 61.95275938 24.04651548 63.31260677 20.71875 64.65625 C16.14961631 65.66999931 11.54784105 66.26263163 6.90625 66.84375 C4.46188181 67.16788619 2.01785035 67.49457538 -0.42578125 67.82421875 C-1.50190674 67.96110107 -2.57803223 68.0979834 -3.68676758 68.23901367 C-6.25746848 68.51955664 -6.25746848 68.51955664 -8.28125 69.65625 C-9.27125 74.60625 -9.27125 74.60625 -10.28125 79.65625 C-18.86125 79.65625 -27.44125 79.65625 -36.28125 79.65625 C-36.28125 71.15073798 -36.28125 71.15073798 -33.28125 67.65625 C-30.80444336 66.76904297 -30.80444336 66.76904297 -27.87109375 66.3984375 C-26.79794922 66.24761719 -25.72480469 66.09679687 -24.61914062 65.94140625 C-23.49701172 65.80605469 -22.37488281 65.67070312 -21.21875 65.53125 C-13.30758324 64.49753663 -5.849651 63.23485978 1.71875 60.65625 C0.94783948 56.12984244 -0.59162158 53.21996008 -3.09375 49.34375 C-8.15113885 41.34134024 -11.76995335 33.64250914 -14.9375 24.70703125 C-16.33364636 21.537292 -18.11889865 19.33518846 -20.28125 16.65625 C-20.3764852 12.18019543 -18.88671284 9.45325294 -15.85546875 6.1875 C-15.33597656 5.6821875 -14.81648438 5.176875 -14.28125 4.65625 C-13.68957031 4.0684375 -13.09789063 3.480625 -12.48828125 2.875 C-7.97351042 -1.09006819 -5.66771028 -1.83601882 0 0 Z " fill="#E27820" transform="translate(70.28125,150.34375)"></path><path d="M0 0 C4.21809879 1.97748299 6.95506919 4.31639236 9.50390625 8.28125 C10.08140625 9.168125 10.65890625 10.055 11.25390625 10.96875 C13.27957821 16.33678068 13.61251226 21.35690246 11.5546875 26.78515625 C8.02450748 33.5448385 3.75935327 37.29227826 -3.45703125 39.73828125 C-9.11913752 41.24600687 -13.47230747 40.42576534 -18.5 37.69140625 C-22.93842629 34.55584482 -26.77002325 30.4594615 -28.49609375 25.28125 C-28.96517248 19.52157842 -29.35316278 14.16680186 -26.93359375 8.84375 C-18.96525647 0.46678003 -11.97539472 -3.44831397 0 0 Z " fill="#EBE4D2" transform="translate(195.49609375,276.71875)"></path><path d="M0 0 C107.25 0 214.5 0 325 0 C324.67 0.66 324.34 1.32 324 2 C225.66 1.67 127.32 1.34 26 1 C29.54084759 12.50775465 32.40858894 20.16665462 41 28 C40.505 29.485 40.505 29.485 40 31 C33.69545759 33.5486448 26.92174959 34.25847188 20.3828125 32.16015625 C11.33653477 28.07695794 6.46813804 21.47917628 1.9453125 12.8828125 C1 10 1 10 0 0 Z " fill="#E6D5BC" transform="translate(34,230)"></path><path d="M0 0 C0 0.66 0 1.32 0 2 C-0.64066406 2.29132813 -1.28132813 2.58265625 -1.94140625 2.8828125 C-12.4877915 7.88095037 -18.27877739 13.11583916 -23 24 C-25.69350995 34.18990512 -24.59485474 45.10146256 -19.74609375 54.40625 C-14.66206644 62.71801127 -8.15576893 67.05707427 1 70 C1 70.66 1 71.32 1 72 C-10.8048552 72.6123556 -19.74750769 71.35410314 -29.1171875 63.82421875 C-37.22266384 55.97098753 -41.04893447 47.2719736 -41.4375 36.125 C-41.18951658 26.11940819 -38.12117095 17.19725183 -31 10 C-20.84302116 1.53017033 -13.10258574 -0.53928325 0 0 Z " fill="#4887B2" transform="translate(192,260)"></path><path d="M0 0 C1.46856445 0.03383789 1.46856445 0.03383789 2.96679688 0.06835938 C5.37527455 0.12710273 7.78059078 0.20917871 10.1875 0.3125 C10.1875 0.9725 10.1875 1.6325 10.1875 2.3125 C8.73632812 3.74023438 8.73632812 3.74023438 6.71875 5.40625 C2.12541178 9.31220486 -2.08990747 13.51299322 -6.3125 17.8125 C-11.14457088 22.73258674 -16.02838641 27.48987642 -21.26367188 31.98242188 C-23.59451685 33.82807806 -23.59451685 33.82807806 -24.09375 36.78125 C-24.1659375 37.7815625 -24.238125 38.781875 -24.3125 39.8125 C-24.70138889 45.20138889 -24.70138889 45.20138889 -25.8125 46.3125 C-27.3012186 46.39919432 -28.793945 46.41953494 -30.28515625 46.41015625 C-31.18427734 46.40693359 -32.08339844 46.40371094 -33.00976562 46.40039062 C-34.42805664 46.38782227 -34.42805664 46.38782227 -35.875 46.375 C-36.82439453 46.37048828 -37.77378906 46.36597656 -38.75195312 46.36132812 C-41.10553065 46.3495011 -43.45898477 46.33302025 -45.8125 46.3125 C-46.73286007 40.75929569 -47.05819808 36.20652731 -43.87890625 31.37255859 C-41.13989904 28.42194763 -38.29598455 25.69733868 -35.3125 23 C-34.31761639 22.0568724 -33.32540355 21.11091915 -32.3359375 20.16210938 C-27.51418697 15.57185812 -22.56093896 11.1269061 -17.47924805 6.82617188 C-15.58602369 5.18802077 -15.58602369 5.18802077 -13.48828125 2.39453125 C-9.29245173 -0.87025289 -5.1475941 -0.22471029 0 0 Z " fill="#E27820" transform="translate(441.8125,117.6875)"></path><path d="M0 0 C6.93 0 13.86 0 21 0 C20.34 3.3 19.68 6.6 19 10 C18.84000179 12.84115067 18.74485931 15.58694267 18.76171875 18.421875 C18.74632 19.9570403 18.73001797 21.49219676 18.71289062 23.02734375 C18.69638685 25.39945339 18.68756184 27.77090341 18.69458008 30.14306641 C18.69720502 32.46589947 18.66908753 34.78680129 18.63671875 37.109375 C18.64692551 37.81261902 18.65713226 38.51586304 18.66764832 39.24041748 C18.55663225 44.86370538 16.77953462 47.14882788 13 51 C11.2043457 50.92602539 11.2043457 50.92602539 9 50 C7.69669654 47.70884111 6.6987119 45.61354697 5.73046875 43.18359375 C5.44520828 42.49370865 5.15994781 41.80382355 4.86604309 41.09303284 C4.26603675 39.62919893 3.67392123 38.16210966 3.08911133 36.69213867 C2.19658897 34.46022858 1.26941812 32.24516205 0.33789062 30.02929688 C-0.24175317 28.60244205 -0.81929453 27.17473098 -1.39453125 25.74609375 C-1.80998955 24.76279335 -1.80998955 24.76279335 -2.23384094 23.7596283 C-5.56298793 15.19127018 -2.58662726 8.62209085 0 0 Z " fill="#E27820" transform="translate(407,192)"></path><path d="M0 0 C4.7325224 0.49888962 7.47673274 1.72688234 11.3125 4.5 C14.97607078 6.98369278 17.18784165 8.33514625 21.625 8.1875 C24.95301827 8.33012935 25.85112683 8.85716223 28.3125 11.21875 C33.12601527 17.39826285 42 28.89624896 42 37 C35.07 37 28.14 37 21 37 C18.8653125 32.730625 18.8653125 32.730625 16.6875 28.375 C12.94214252 21.05771042 8.79148443 14.58066988 3.4050293 8.36669922 C0.69447945 5.19205775 0 4.36443155 0 0 Z " fill="#E37820" transform="translate(357,155)"></path><path d="M0 0 C3.26600019 2.46764459 4.78253791 3.95618195 5.625 8 C4.76814736 12.11289267 3.42264067 13.59686932 0 16 C-3.51955419 16 -5.84920059 15.63108355 -8.9375 13.9375 C-10.69816113 10.72688264 -10.75353146 7.50004798 -10 4 C-7.03506276 0.61150029 -4.50444973 -1.01350119 0 0 Z " fill="#5F97C6" transform="translate(190,288)"></path></svg>